<svg width="80" height="39" viewBox="0 0 80 39" fill="none" xmlns="http://www.w3.org/2000/svg">
<path d="M2.98152 36.564L2.26494 38.6498H0L3.78342 27.6396H7.0038L10.864 38.6498H8.64598L7.9038 36.564H2.98152ZM5.45546 29.2554H5.4256L3.48057 34.9646H7.41754L5.45546 29.2554Z" fill="white"/>
<path d="M13.6278 30.9414V32.0585H13.6918C14.1183 31.0734 15.1932 30.8549 16.1956 30.8549C17.1979 30.8549 18.3539 31.1022 18.5671 32.2193H18.6269C18.9937 31.1475 20.0856 30.8549 21.1477 30.8549C23.2164 30.8549 23.8989 31.5433 23.8989 33.4395V38.6499H21.9837V33.6126C21.9411 32.6439 21.6979 32.2647 20.6487 32.2647C19.096 32.2647 18.7932 32.9407 18.7932 34.3051V38.6499H16.878V33.6126C16.8354 32.6439 16.5923 32.2647 15.543 32.2647C13.9946 32.2647 13.6918 32.9407 13.6918 34.3051V38.6499H11.7766V30.9414H13.6278Z" fill="white"/>
<path d="M25.7375 27.6396H27.6527V31.9719H27.7295C28.156 31.0321 29.1541 30.8548 30.1267 30.8548C32.8608 30.8548 33.1807 32.3058 33.1807 34.5648C33.1807 36.9267 33.0911 38.7364 30.1267 38.7364C29.0049 38.7364 28.1219 38.5014 27.6357 37.4997H27.5759L27.6527 38.6581H25.7375V27.6396ZM27.6527 34.5689C27.6527 36.4032 27.6058 37.3307 29.5679 37.3307C31.3124 37.3307 31.274 36.3167 31.274 34.5689C31.274 32.6315 30.8944 32.2646 29.5679 32.2646C27.9086 32.2646 27.6527 32.9241 27.6527 34.5689Z" fill="white"/>
<path d="M40.0351 37.6811H39.9881C39.6085 38.7076 38.4398 38.7405 37.5099 38.7405C35.7014 38.7405 34.5242 38.3737 34.5242 36.2879C34.5242 34.437 35.5265 33.9218 37.5099 33.9218C38.4825 33.9218 39.4422 33.9218 39.8986 34.8039H39.9583V33.8063C39.9583 32.5697 39.8516 32.1162 38.2521 32.1162C37.399 32.1162 36.7464 32.1905 36.7464 33.188H34.8313C34.8313 30.9414 36.4265 30.8549 38.2436 30.8549C40.8028 30.8549 41.8564 31.2382 41.8564 33.8187V38.6499H39.9455L40.0351 37.6811ZM36.4479 36.2879C36.4479 37.372 36.9043 37.475 38.1967 37.475C39.2119 37.475 39.9583 37.3885 39.9583 36.2879C39.9583 35.1873 39.1351 35.1873 38.1967 35.1873C37.2583 35.1873 36.4479 35.1873 36.4479 36.2879Z" fill="white"/>
<path d="M45.5035 30.9414L45.4566 31.9555H45.5333C45.913 31.1022 46.7319 30.8549 47.666 30.8549C49.3722 30.8549 49.7646 31.8236 49.7646 33.2787V33.8929H47.9732V33.4807C47.9732 32.7016 47.8964 32.244 47.0006 32.244C45.8618 32.244 45.5248 32.8747 45.5547 33.8723V38.6292H43.6353V30.9208L45.5035 30.9414Z" fill="white"/>
<path d="M58.1374 36.1972C58.1374 38.621 56.6957 38.7405 54.418 38.7405C51.364 38.7405 50.7412 37.8007 50.7412 34.8204C50.7412 32.0585 51.1976 30.8549 54.418 30.8549C57.6384 30.8549 58.1374 31.7782 58.1374 35.1419H52.6564C52.6564 36.7908 52.699 37.3308 54.418 37.3308C55.4801 37.3308 56.2265 37.3308 56.2265 36.1972H58.1374ZM56.2265 33.9671C56.2265 32.3801 55.9834 32.2647 54.418 32.2647C52.763 32.2647 52.6564 32.6027 52.6564 33.9671H56.2265Z" fill="white"/>
<path d="M61.6351 38.6498H59.72V27.6396H61.6351V38.6498Z" fill="white"/>
<path d="M65.4611 38.6498H63.5459V27.6396H65.4611V38.6498Z" fill="white"/>
<path d="M72.5545 37.6811H72.5076C72.128 38.7076 70.9592 38.7405 70.0336 38.7405C68.2251 38.7405 67.0479 38.3737 67.0479 36.2879C67.0479 34.437 68.0502 33.9218 70.0336 33.9218C71.0061 33.9218 71.9616 33.9218 72.418 34.8039H72.4777V33.8063C72.4777 32.5697 72.3711 32.1162 70.7716 32.1162C69.9185 32.1162 69.2701 32.1905 69.2701 33.188H67.355C67.355 30.9414 68.9502 30.8549 70.7673 30.8549C73.3265 30.8549 74.3844 31.2382 74.3844 33.8187V38.6499H72.4692L72.5545 37.6811ZM68.9673 36.2879C68.9673 37.372 69.4237 37.475 70.7161 37.475C71.7355 37.475 72.4777 37.3885 72.4777 36.2879C72.4777 35.1873 71.6588 35.1873 70.7161 35.1873C69.7734 35.1873 68.9843 35.1873 68.9843 36.2879H68.9673Z" fill="white"/>
<path d="M11.9089 23.0682L17.8037 18.1875L23.6942 23.0682H11.9089Z" fill="white"/>
<path d="M25.8398 23.0682L31.7304 18.1875L37.6252 23.0682H25.8398Z" fill="white"/>
<path d="M39.7664 23.0682L45.6612 18.1875L51.5517 23.0682H39.7664Z" fill="white"/>
<path d="M53.6929 23.0682L59.5877 18.1875L65.4782 23.0682H53.6929Z" fill="white"/>
<path d="M41.6217 2.37902C42.2274 3.20345 43.0378 4.74513 43.0378 5.55719C43.0378 8.22422 41.0629 9.86072 38.6572 9.86072C36.2516 9.86072 34.3918 8.21186 34.3918 5.55719C34.3918 4.73276 35.2449 3.00972 35.9786 2.07399C36.8317 0.989863 37.5696 0.21077 38.6658 0.21077C39.762 0.21077 40.7388 1.15062 41.6217 2.37902Z" fill="white"/>
<path d="M45.6825 6.65364C46.5355 6.65364 48.2033 8.15823 48.8346 8.93731C49.2611 9.47319 50.7924 11.2746 50.7924 11.794C50.7924 13.4882 47.41 16.2665 45.6739 16.2665C43.9379 16.2665 40.645 13.4882 40.645 11.794C40.645 11.254 42.3043 9.24647 42.8289 8.65288C43.4346 7.96449 44.8806 6.65364 45.6825 6.65364Z" fill="white"/>
<path d="M31.662 6.65364C32.4894 6.65364 34.1785 8.15823 34.8098 8.93731C35.2364 9.47319 36.7676 11.2746 36.7676 11.794C36.7676 13.4882 33.3894 16.2665 31.6492 16.2665C29.9089 16.2665 26.616 13.4882 26.616 11.794C26.616 11.254 28.2752 9.24647 28.7999 8.65288C29.4269 7.96449 30.8771 6.65364 31.662 6.65364Z" fill="white"/>
<path d="M52.6606 12.7875C53.0872 12.7875 55.4545 14.762 55.7701 15.1247C55.9877 15.372 58.1588 17.3836 58.1588 17.6269C58.1588 18.4183 53.5265 22.1612 52.6606 22.1612C51.7948 22.1612 47.2009 18.4224 47.2009 17.6269C47.2009 17.3754 49.5938 15.1536 49.8583 14.8609C50.1227 14.5682 52.2682 12.7875 52.6606 12.7875Z" fill="white"/>
<path d="M38.6532 12.7875C39.0797 12.7875 41.447 14.762 41.7627 15.1247C41.9802 15.372 44.1513 17.3836 44.1513 17.6269C44.1513 18.4183 39.5148 22.1612 38.6532 22.1612C37.7916 22.1612 33.1892 18.4224 33.1892 17.6269C33.1892 17.3754 35.5864 15.1536 35.8508 14.8609C36.1153 14.5682 38.2608 12.7875 38.6532 12.7875Z" fill="white"/>
<path d="M24.7564 12.7875C25.1829 12.7875 27.5502 14.762 27.8658 15.1247C28.0834 15.372 30.2587 17.3836 30.2587 17.6269C30.2587 18.4183 25.6222 22.1612 24.7564 22.1612C23.8905 22.1612 19.2966 18.4224 19.2966 17.6269C19.2966 17.3754 21.6895 15.1536 21.954 14.8609C22.2184 14.5682 24.3554 12.7875 24.7564 12.7875Z" fill="white"/>
<path d="M75.344 29.8737V27.9157H74.6189V27.5034H76.5554V27.9157H75.8388V29.8737H75.344Z" fill="white"/>
<path d="M76.8667 29.8738V27.5159H77.6046L78.0312 29.1235L78.4577 27.5159H79.1999V29.8738H78.7435V28.0188L78.2572 29.8738H77.7838L77.3018 28.0188V29.8738H76.8667Z" fill="white"/>
</svg>
