<svg width="238" height="31" viewBox="0 0 238 31" fill="none" xmlns="http://www.w3.org/2000/svg">
<path d="M92.7959 3.286V2.33729L92.3834 2.06669H75.9494L75.6755 2.33729V3.286L75.9494 3.55659H82.9454L83.2193 3.82719V23.5839L83.4932 23.8545H84.7274L85.0013 23.5839V3.95759L85.2752 3.687H92.4032L92.8157 3.28274L92.7959 3.286ZM96.4919 8.01326C92.1029 8.01326 89.4959 11.1235 89.4959 15.5769V16.2582C89.4959 20.5943 91.6904 24.3761 96.7559 24.3761C101.145 24.3761 102.795 21.5332 103.059 19.6488L102.788 19.3815H101.551L101.28 19.6488C100.594 21.543 99.3563 22.7623 96.8912 22.7623C92.7662 22.7623 91.5452 18.9805 91.5452 17.0896L91.8224 16.8223H103.207L103.485 16.5484V15.5997C103.485 11.1332 101.02 8.03608 96.4886 8.03608L96.4919 8.01326ZM96.4919 9.63683C98.4092 9.63683 99.6731 10.416 100.452 11.4658C101.241 12.5156 101.548 13.8327 101.548 14.9216L101.277 15.1954H91.6739L91.3967 14.9216C91.3967 13.8392 91.7046 12.5188 92.4923 11.4658C93.281 10.416 94.5515 9.63683 96.4853 9.63683H96.4919ZM106.623 16.1246C106.623 11.7885 108.814 9.50642 111.969 9.50642C115.12 9.50642 116.358 11.4006 116.754 13.2882L117.028 13.5588H118.397L118.671 13.2882C118.397 10.1748 115.794 8.00674 111.972 8.00674C107.847 8.00674 104.712 10.579 104.712 16.1246C104.712 21.7973 107.864 24.2424 111.972 24.2424C115.8 24.2424 118.275 22.0777 118.671 18.9609L118.397 18.6903H117.163L116.889 18.9609C116.615 20.8551 115.246 22.7427 112.104 22.7427C108.953 22.7427 106.626 20.578 106.626 16.1246H106.623ZM134.013 23.7208V14.2337C134.013 10.1585 131.822 8.00674 128.271 8.00674C126.08 8.00674 124.146 8.95545 123.189 10.579H122.915V2.46117L122.503 2.05691H121.268L120.994 2.3275V23.7143L121.268 23.9849H122.503L122.776 23.7143V15.1726C122.776 11.6516 124.42 9.4999 127.858 9.4999C130.462 9.4999 131.983 11.1235 131.983 14.2272V23.7143L132.257 23.9849H133.492L134.039 23.7143L134.013 23.7208ZM150.183 23.7208V14.2337C150.183 10.1585 147.992 8.00674 144.441 8.00674C142.25 8.00674 140.316 8.95545 139.359 10.579H139.085L138.811 8.68485L138.537 8.41426H137.577L137.303 8.68485V23.7143L137.577 23.9849H138.811L139.085 23.7143V15.1726C139.085 11.6516 140.728 9.4999 144.167 9.4999C146.771 9.4999 148.292 11.1235 148.292 14.2272V23.7143L148.566 23.9849H149.935L150.209 23.7143L150.183 23.7208ZM159.357 8.13714C155.232 8.13714 152.097 10.9833 152.097 16.255C152.097 21.5365 155.252 24.3728 159.357 24.3728C163.462 24.3728 166.617 21.5332 166.617 16.255C166.617 10.9735 163.462 8.13714 159.357 8.13714ZM159.357 9.62705C160.934 9.62705 162.268 10.2726 163.218 11.4234C164.158 12.5742 164.706 14.2337 164.706 16.2485C164.706 18.2796 164.158 19.9325 163.218 21.0735C162.277 22.2244 160.941 22.8634 159.357 22.8634C157.78 22.8634 156.446 22.2244 155.496 21.0735C154.555 19.9227 154.008 18.2633 154.008 16.2485C154.008 14.1489 154.555 12.4993 155.496 11.3582C156.436 10.2237 157.773 9.614 159.357 9.614V9.62705ZM170.874 23.711V2.32424L170.461 2.05365H169.227L168.953 2.32424V23.711L169.227 23.9816H170.461L170.874 23.711ZM180.345 8.12736C176.22 8.12736 173.085 10.9735 173.085 16.2452C173.085 21.5267 176.24 24.3631 180.345 24.3631C184.45 24.3631 187.605 21.5234 187.605 16.2452C187.605 10.9637 184.457 8.12736 180.345 8.12736ZM180.345 9.61726C181.922 9.61726 183.252 10.2628 184.206 11.4136C185.146 12.5645 185.701 14.2239 185.701 16.2387C185.701 18.2698 185.146 19.9227 184.206 21.0638C183.265 22.2146 181.932 22.8536 180.345 22.8536C178.768 22.8536 177.434 22.2146 176.484 21.0638C175.537 19.9129 174.982 18.2535 174.982 16.2387C174.982 14.1391 175.537 12.4895 176.477 11.3484C177.418 10.2139 178.754 9.60422 180.338 9.60422L180.345 9.61726ZM195.954 7.9937C191.565 7.9937 189.222 11.5147 189.222 16.1115C189.222 20.8388 191.416 24.2294 195.954 24.2294C198.832 24.2294 200.343 23.0101 201.036 21.6571V21.7908C201.036 25.866 200.079 28.9632 196.251 28.9632C193.373 28.9632 192.423 27.7471 192.126 26.1236L191.849 25.8497H190.618L190.341 26.1236C190.615 28.6958 192.538 30.4596 196.38 30.4596C200.505 30.4596 203.112 27.8873 203.112 21.6571V8.64899L202.834 8.38166H201.874L201.604 8.64899L201.326 10.5464H201.056C200.369 9.32711 198.861 7.97413 195.974 7.97413L195.954 7.9937ZM195.954 9.4836C197.531 9.4836 198.799 10.0215 199.683 11.1202C200.558 12.2189 201.036 13.8783 201.036 16.1083C201.036 18.3415 200.558 19.9879 199.683 21.0964C198.809 22.195 197.541 22.7395 195.954 22.7395C194.377 22.7395 193.109 22.195 192.225 21.0964C191.35 19.9977 190.879 18.3382 190.879 16.1083C190.879 13.9435 191.354 12.2939 192.225 11.1528C193.099 10.0346 194.367 9.46404 195.954 9.46404V9.4836ZM207.999 5.57138V3.67722L207.725 3.40662H206.491L206.078 3.67722V5.57138L206.352 5.84198H207.586L207.999 5.57138ZM207.999 23.698V8.66855L207.725 8.39796H206.491L206.078 8.66855V23.698L206.352 23.9686H207.586L207.999 23.698ZM217.173 7.98392C212.784 7.98392 210.177 11.0941 210.177 15.5475V16.2289C210.177 20.5649 212.371 24.3468 217.437 24.3468C221.826 24.3468 223.476 21.5039 223.74 19.6195L223.463 19.3522H222.232L221.955 19.6195C221.268 21.5137 220.037 22.733 217.566 22.733C213.441 22.733 212.22 18.9512 212.22 17.0603L212.497 16.7929H223.882L224.159 16.5191V15.5704C224.159 11.2343 221.552 8.00674 217.163 8.00674L217.173 7.98392ZM217.173 9.60748C219.09 9.60748 220.361 10.3867 221.166 11.4364C221.955 12.4862 222.262 13.8033 222.262 14.8922L221.984 15.1661H212.381L212.111 14.8922C212.111 13.8099 212.419 12.4895 213.206 11.4364C213.995 10.3867 215.259 9.60748 217.166 9.60748H217.173ZM237.6 19.9096C237.6 17.0668 235.957 15.8344 232.815 15.1824C229.663 14.5043 227.733 14.2337 227.733 12.0689C227.733 10.4454 228.967 9.49664 231.297 9.49664C234.175 9.49664 235.125 10.7159 235.125 12.3395L235.399 12.6101H236.633L236.907 12.3395C236.907 9.22604 234.304 8.00348 231.165 8.00348C227.601 8.00348 225.819 9.89764 225.819 12.0787C225.819 14.651 227.737 15.8605 230.901 16.4147C234.053 17.0929 235.686 17.3635 235.686 19.9357C235.686 21.5593 234.726 22.7786 231.561 22.7786C228.684 22.7786 227.436 21.155 227.436 19.2576L227.162 18.987H225.928L225.654 19.2576C225.654 22.1005 227.845 24.2783 231.693 24.2783C235.653 24.4152 237.6 22.5178 237.6 19.9423L237.6 19.9096Z" fill="white"/>
<path d="M75.636 19.3683V23.8348H61.38V1.73076H66.561V19.3357H75.636V19.3683ZM32.406 0.49189L19.767 10.1094C18.4701 5.31695 14.256 1.79596 9.075 1.79596H0V23.9H9.075C14.256 23.9 18.81 20.379 19.767 15.5865L32.406 25.204L45.045 15.5865V23.9H59.301V19.4009H49.896V1.79596H44.715V10.1094L32.736 19.7269L30.1455 17.4839L35.9865 12.9849L42.1575 8.19243L38.5935 5.31369L26.6145 14.6052L24.024 12.3622L36.003 3.39671L32.439 0.517971H32.4327L32.406 0.49189ZM4.851 6.26241H8.745C9.5535 6.26241 10.3488 6.44172 11.0781 6.77099C11.8074 7.10027 12.4773 7.58278 13.0449 8.18591C13.6125 8.78578 14.0745 9.50302 14.3979 10.3115C14.722 11.1233 14.8995 12.0264 14.8995 12.9849C14.8995 13.8651 14.7408 14.7226 14.4408 15.5181C14.1418 16.3135 13.7049 17.0438 13.1571 17.6633C12.6093 18.2827 11.9559 18.7913 11.2101 19.1466C10.4643 19.502 9.6327 19.7009 8.7417 19.7009H4.8477V6.26893L4.851 6.26241Z" fill="white"/>
</svg>
