<svg width="60" height="39" viewBox="0 0 60 39" fill="none" xmlns="http://www.w3.org/2000/svg">
<g clip-path="url(#clip0_172_1441)">
<path d="M18.1535 16.5831V25.9232H15.1478V14.1831L21.3532 14.1892C23.9889 14.1892 24.8867 16.0278 24.8867 17.6978V25.9232H21.8864V17.7131C21.8864 17.0136 21.5203 16.5831 20.6373 16.5831H18.1535V16.5831ZM38.5923 16.4428C37.5649 16.4428 36.7698 16.9653 36.4377 17.6745C36.2409 18.1003 36.1733 18.4266 36.1501 18.948H40.7744C40.715 17.6745 40.1312 16.4428 38.5923 16.4428ZM36.1501 20.9715C36.1501 22.4923 37.1059 23.6116 38.8122 23.6116C40.1399 23.6116 40.7997 23.2477 41.5673 22.4923L43.4238 24.2457C42.2351 25.4065 40.9878 26.1114 38.7902 26.1114C35.9128 26.1114 33.1592 24.5595 33.1592 20.0365C33.1592 16.172 35.5634 13.9842 38.7225 13.9842C41.9247 13.9842 43.7747 16.5455 43.7747 19.9006V20.9715H36.1501ZM30.6219 25.9085C28.1732 25.9085 27.1343 24.2224 27.1343 22.5571V10.9845H30.1353V14.1831H32.3977V16.5831H30.1353V22.371C30.1353 23.053 30.4609 23.4316 31.1768 23.4316H32.3977V25.9085H30.6219ZM12.4734 12.5607H9.44698V9.71704H12.4734V12.5607ZM12.481 26.0467C10.2146 25.8312 9.44374 24.4715 9.44374 22.9024L9.44701 14.1831H12.481V26.0467H12.481ZM48.5512 25.7958C46.2896 25.58 45.5223 24.2224 45.5223 22.6555V9.31234H48.5512V25.7958ZM59.14 11.2407C56.395 -1.99727 30.4168 -2.83531 13.6722 7.24801V8.36122C30.3998 -0.142274 54.1236 -0.0921794 56.285 12.1006C57.0082 16.1322 54.7114 20.3357 50.6096 22.7518V25.9128C55.5467 24.1262 60.6101 18.3325 59.14 11.2407ZM28.7021 34.402C17.1457 35.4587 5.10312 33.7994 3.4181 24.8669C2.59331 20.4634 4.62127 15.7955 7.31159 12.896V11.3455C2.46851 15.5465 -0.159955 20.8649 1.35324 27.1491C3.28461 35.2075 13.6201 39.7741 29.3956 38.2576C35.6372 37.6551 43.8065 35.6698 49.486 32.5864V28.2058C44.3325 31.2413 35.8047 33.7515 28.7021 34.402Z" fill="white"/>
<path d="M52.0529 10.1984C52.0529 10.0531 51.9671 10.0069 51.7711 10.0069H51.5819V10.4181C51.6094 10.4181 51.7468 10.4231 51.7711 10.4231C51.9671 10.4231 52.0529 10.3583 52.0529 10.2223V10.1984V10.1984ZM52.3481 11.2178H52.1238C52.1035 11.2178 52.0858 11.2053 52.0771 11.1885L51.7711 10.6754C51.7656 10.665 51.7392 10.6525 51.7287 10.6525H51.5913V11.1613C51.5913 11.1885 51.5725 11.2178 51.5363 11.2178H51.3334C51.308 11.2178 51.2827 11.1885 51.2827 11.1613V9.87417C51.2827 9.79975 51.312 9.76862 51.3757 9.75895C51.4473 9.74966 51.6419 9.74321 51.7468 9.74321C52.1194 9.74321 52.3448 9.85199 52.3448 10.1984V10.2223C52.3448 10.4367 52.237 10.5497 52.0699 10.6052L52.3871 11.1359C52.3892 11.1466 52.3965 11.1613 52.3965 11.1738C52.3965 11.1946 52.3839 11.2178 52.3481 11.2178L52.3481 11.2178ZM51.8156 9.51097C51.2635 9.51097 50.8171 9.96183 50.8171 10.5047C50.8171 11.0482 51.2635 11.4919 51.8156 11.4919C52.3647 11.4919 52.8154 11.0482 52.8154 10.5047C52.8154 9.96183 52.3647 9.51097 51.8156 9.51097ZM51.8156 11.6966C51.1449 11.6966 50.6099 11.1613 50.6099 10.5047C50.6099 9.84912 51.1449 9.31237 51.8156 9.31237C52.479 9.31237 53.0242 9.84912 53.0242 10.5047C53.0242 11.1613 52.479 11.6966 51.8156 11.6966Z" fill="white"/>
</g>
<defs>
<clipPath id="clip0_172_1441">
<rect width="58.8649" height="38.5297" fill="white" transform="translate(0.729736 0.21077)"/>
</clipPath>
</defs>
</svg>
