<svg width="161" height="32" viewBox="0 0 161 32" fill="none" xmlns="http://www.w3.org/2000/svg">
<path d="M158.9 24.1845V23.736H159.184C159.344 23.736 159.557 23.7486 159.557 23.9395C159.557 24.1466 159.433 24.1845 159.255 24.1845H158.9ZM158.9 24.4996H159.095L159.522 25.2831H160.002L159.522 24.4672C159.771 24.4492 159.984 24.3268 159.984 23.9828C159.984 23.5559 159.7 23.419 159.202 23.419H158.491V25.2831H158.9V24.4996ZM160.962 24.3538C160.962 23.2588 160.126 22.623 159.184 22.623C158.242 22.623 157.407 23.2588 157.407 24.3538C157.407 25.4488 158.242 26.0863 159.184 26.0863C160.126 26.0863 160.962 25.4488 160.962 24.3538ZM160.464 24.3538C160.464 25.1516 159.877 25.6865 159.184 25.6865V25.6811C158.491 25.6865 157.922 25.1516 157.922 24.3538C157.922 23.5559 158.491 23.0228 159.184 23.0228C159.877 23.0228 160.464 23.5559 160.464 24.3538Z" fill="white"/>
<path d="M95.8123 5.82179L95.8141 25.474H101.292V5.82179H95.8123ZM52.7224 5.79478V25.474H58.2484V10.5313L62.5302 10.5331C63.9486 10.5331 64.9581 10.8915 65.6425 11.6299C66.5081 12.5646 66.8618 14.0739 66.8618 16.8329V25.474H72.2153V14.6015C72.2153 6.84113 67.3345 5.79478 62.5586 5.79478H52.7224ZM104.632 5.82359V25.474H113.515C118.249 25.474 119.793 24.6762 121.466 22.8878C122.646 21.6325 123.409 18.8771 123.409 15.864C123.409 13.1031 122.763 10.6376 121.636 9.10316C119.607 6.35848 116.683 5.82359 112.319 5.82359H104.632ZM110.065 10.1009H112.421C115.837 10.1009 118.046 11.6569 118.046 15.6893C118.046 19.7253 115.837 21.2796 112.421 21.2796H110.065V10.1009ZM87.9153 5.82359L83.3438 21.3966L78.9624 5.82359H73.0507L79.3055 25.474H87.2007L93.5052 5.82359H87.9153ZM125.957 25.474H131.435V5.82359H125.957V25.474ZM141.312 5.82899L133.664 25.4668H139.066L140.276 21.9964H149.32L150.475 25.4668H156.34L148.627 5.82899H141.312ZM144.869 9.41294L148.182 18.6123H141.446L144.869 9.41294Z" fill="white"/>
<path d="M17.6422 9.6835V6.87927C17.9103 6.86002 18.1815 6.84505 18.4581 6.83649C26.0261 6.59585 30.9901 13.4257 30.9901 13.4257C30.9901 13.4257 25.6281 20.972 19.8788 20.972C19.0513 20.972 18.3093 20.8362 17.6422 20.6095V12.108C20.5881 12.4685 21.1802 13.7871 22.9514 16.7785L26.8905 13.4128C26.8905 13.4128 24.0153 9.59152 19.1684 9.59152C18.6407 9.59152 18.1362 9.62895 17.6422 9.6835ZM17.6422 0.421654V4.60981C17.9134 4.58735 18.1858 4.57024 18.4581 4.56061C28.9825 4.20126 35.8381 13.3048 35.8381 13.3048C35.8381 13.3048 27.9629 23.0083 19.7585 23.0083C19.0069 23.0083 18.3029 22.9378 17.6422 22.819V25.4083C18.2069 25.481 18.7937 25.5238 19.4049 25.5238C27.0394 25.5238 32.5607 21.5731 37.9079 16.8972C38.7935 17.617 42.4223 19.3656 43.1696 20.1325C38.0852 24.4447 26.2382 27.9205 19.522 27.9205C18.875 27.9205 18.2523 27.881 17.6422 27.8211V31.4595H46.6601V0.421654H17.6422ZM17.6422 20.6095V22.819C10.5798 21.5442 8.61972 14.1059 8.61972 14.1059C8.61972 14.1059 12.0111 10.2995 17.6422 9.6835V12.108C17.6369 12.108 17.6348 12.107 17.6306 12.107C14.6762 11.7476 12.3668 14.5443 12.3668 14.5443C12.3668 14.5443 13.6608 19.2544 17.6422 20.6095ZM5.0996 13.7839C5.0996 13.7839 9.28468 7.52632 17.6422 6.87927V4.60981C8.38538 5.36167 0.369873 13.3048 0.369873 13.3048C0.369873 13.3048 4.90961 26.604 17.6422 27.8211V25.4083C8.29883 24.2169 5.0996 13.7839 5.0996 13.7839Z" fill="white"/>
</svg>
