<svg width="54" height="126" viewBox="0 0 54 126" fill="none" xmlns="http://www.w3.org/2000/svg">
<path fill-rule="evenodd" clip-rule="evenodd" d="M31 1.5C27.9624 1.5 25.5 3.96244 25.5 7V57C25.5 60.5899 22.5899 63.5 19 63.5H0V62.5H19C22.0376 62.5 24.5 60.0376 24.5 57V7C24.5 3.41015 27.4101 0.5 31 0.5H54V1.5H31Z" fill="#7D7D7D"/>
<path fill-rule="evenodd" clip-rule="evenodd" d="M31 124.5C27.9624 124.5 25.5 122.038 25.5 119V69C25.5 65.4101 22.5899 62.5 19 62.5H0V63.5H19C22.0376 63.5 24.5 65.9624 24.5 69V119C24.5 122.59 27.4101 125.5 31 125.5H54V124.5H31Z" fill="#7D7D7D"/>
<path fill-rule="evenodd" clip-rule="evenodd" d="M54 62.5H0V63.5H54V62.5Z" fill="#7D7D7D"/>
</svg>
