<?xml version="1.0" encoding="UTF-8"?><svg version="1.1" width="63px" height="44px" viewBox="0 0 63.0 44.0" xmlns="http://www.w3.org/2000/svg" xmlns:xlink="http://www.w3.org/1999/xlink"><defs><clipPath id="i0"><path d="M41.9375,0 C44.4194375,0 47.16825,1.77259091 48.1947656,4.03581818 L49.8055469,7.58386364 C50.1048281,8.2425 50.5642344,9.00422727 51.1008437,9.765 C51.2361875,9.87286364 51.3429375,10.0084091 51.4029844,10.1745 C51.4249062,10.2040909 51.4468281,10.2336818 51.46875,10.2632727 L51.46875,8.59090909 C51.46875,8.064 51.89575,7.63636364 52.421875,7.63636364 L57.1875,7.63636364 C57.713625,7.63636364 58.140625,8.064 58.140625,8.59090909 L58.140625,11.4545455 C58.140625,11.9098636 57.820375,12.3012273 57.3752656,12.39 L54.046,13.0572273 C54.0602969,13.0686818 54.0745937,13.083 54.0888906,13.0944545 L57.6650156,15.96 C59.5350469,17.4586364 61,20.5112727 61,22.9090909 L61,39.1363636 C61,40.7151818 59.7170937,42 58.140625,42 L50.515625,42 C48.9391562,42 47.65625,40.7151818 47.65625,39.1363636 L47.65625,37.2272727 L13.34375,37.2272727 L13.34375,39.1363636 C13.34375,40.7151818 12.0608437,42 10.484375,42 L2.859375,42 C1.28290625,42 0,40.7151818 0,39.1363636 L0,22.9090909 C0,20.5112727 1.46495312,17.4586364 3.33498437,15.96 L6.9120625,13.0944545 C6.92635937,13.083 6.94065625,13.0686818 6.95495312,13.0572273 L3.6256875,12.39 C3.179625,12.3012273 2.859375,11.9098636 2.859375,11.4545455 L2.859375,8.59090909 C2.859375,8.064 3.286375,7.63636364 3.8125,7.63636364 L8.57907813,7.63636364 C9.10520313,7.63636364 9.53220313,8.064 9.53220313,8.59090909 L9.53220313,10.2632727 C9.55507813,10.2327273 9.57604688,10.2040909 9.59796875,10.1745 C9.65896875,10.0084091 9.76476563,9.87286364 9.90010938,9.765 C10.4367188,9.00422727 10.896125,8.24154545 11.1954063,7.58290909 L12.8052344,4.03581818 C13.83175,1.77259091 16.5805625,0 19.0625,0 Z M1.90625,36.2488636 L1.90625,39.1363636 C1.90625,39.6623182 2.33420313,40.0909091 2.859375,40.0909091 L10.484375,40.0909091 C11.0095469,40.0909091 11.4375,39.6623182 11.4375,39.1363636 L11.4375,37.2272727 L4.765625,37.2272727 C3.68859375,37.2272727 2.70496875,36.8540455 1.90625,36.2488636 Z M59.09375,36.2488636 C58.2950313,36.8540455 57.3114063,37.2272727 56.234375,37.2272727 L49.5625,37.2272727 L49.5625,39.1363636 C49.5625,39.6623182 49.9904531,40.0909091 50.515625,40.0909091 L58.140625,40.0909091 C58.6657969,40.0909091 59.09375,39.6623182 59.09375,39.1363636 Z M46.703125,21.3951818 L45.4707344,22.6294091 C45.2925,22.8088636 45.0494531,22.9090909 44.796875,22.9090909 L33.7539688,22.9090909 L31.1738594,25.4930455 C30.988,25.6791818 30.744,25.7727273 30.5,25.7727273 C30.256,25.7727273 30.012,25.6791818 29.8261406,25.4930455 L27.2460313,22.9090909 L16.203125,22.9090909 C15.9505469,22.9090909 15.7075,22.8088636 15.5292656,22.6294091 L14.296875,21.3951818 L13.0644844,22.6294091 C12.8852969,22.8088636 12.6432031,22.9090909 12.390625,22.9090909 L4.765625,22.9090909 C3.53228125,22.9090909 2.64492188,22.4747727 2.03492188,21.8371364 C1.959625,22.2084545 1.90625,22.5721364 1.90625,22.9090909 L1.90625,25.7727273 L6.671875,25.7727273 C7.98432813,25.7727273 9.6723125,26.4733636 10.5997031,27.4021364 C10.972375,27.7753636 10.972375,28.3786364 10.5997031,28.7518636 C10.4138438,28.938 10.1698438,29.0315455 9.92584375,29.0315455 C9.68184375,29.0315455 9.43784375,28.938 9.25198438,28.7518636 C8.6925,28.1915455 7.46296875,27.6818182 6.671875,27.6818182 L4.765625,27.6818182 L4.765625,28.6363636 C4.765625,29.6892273 5.62057813,30.5454545 6.671875,30.5454545 L9.53125,30.5454545 C10.057375,30.5454545 10.484375,30.9730909 10.484375,31.5 C10.484375,32.0269091 10.057375,32.4545455 9.53125,32.4545455 L6.671875,32.4545455 C4.56928125,32.4545455 2.859375,30.7420909 2.859375,28.6363636 L2.859375,27.6818182 L1.90625,27.6818182 L1.90625,32.4545455 C1.90625,34.0333636 3.18915625,35.3181818 4.765625,35.3181818 L11.5194688,35.3181818 L13.7049844,33.1294091 C14.632375,32.2006364 16.3213125,31.5 17.6328125,31.5 L42.890625,31.5 C44.202125,31.5 45.8910625,32.2006364 46.8184531,33.1294091 L49.0039688,35.3181818 L56.234375,35.3181818 C57.8108438,35.3181818 59.09375,34.0333636 59.09375,32.4545455 L59.09375,27.6818182 L58.140625,27.6818182 L58.140625,28.6363636 C58.140625,30.7420909 56.4307188,32.4545455 54.328125,32.4545455 L51.46875,32.4545455 C50.942625,32.4545455 50.515625,32.0269091 50.515625,31.5 C50.515625,30.9730909 50.942625,30.5454545 51.46875,30.5454545 L54.328125,30.5454545 C55.3794219,30.5454545 56.234375,29.6892273 56.234375,28.6363636 L56.234375,27.6818182 L54.328125,27.6818182 C53.5370313,27.6818182 52.3075,28.1915455 51.7480156,28.7518636 C51.5621563,28.938 51.3181563,29.0315455 51.0741563,29.0315455 C50.8301563,29.0315455 50.5861563,28.938 50.4002969,28.7518636 C50.027625,28.3786364 50.027625,27.7753636 50.4002969,27.4021364 C51.3276875,26.4733636 53.016625,25.7727273 54.328125,25.7727273 L59.09375,25.7727273 L59.09375,22.9090909 C59.09375,22.5721364 59.040375,22.2084545 58.9650781,21.8371364 C58.3550781,22.4747727 57.4677188,22.9090909 56.234375,22.9090909 L48.609375,22.9090909 C48.3567969,22.9090909 48.11375,22.8088636 47.9355156,22.6294091 L46.703125,21.3951818 Z M42.890625,33.4090909 L17.6328125,33.4090909 C16.8417188,33.4090909 15.6121875,33.9188182 15.0527031,34.4791364 L14.2149063,35.3181818 L46.3085313,35.3181818 L45.4707344,34.4791364 C44.91125,33.9188182 43.6817188,33.4090909 42.890625,33.4090909 Z M49.981875,11.4545455 L11.018125,11.4545455 C10.0945469,12.6773182 9.0394375,13.8342273 8.10346875,14.5864091 L6.95685938,15.5046818 L13.6983125,18.2050909 C13.8155469,18.2528182 13.9242031,18.3225 14.0176094,18.4160455 L14.9707344,19.3705909 L16.5977188,21 L27.640625,21 C27.8932031,21 28.13625,21.1002273 28.3144844,21.2796818 L30.5,23.4684545 L32.6855156,21.2796818 C32.86375,21.1002273 33.1067969,21 33.359375,21 L44.4022813,21 L46.0302188,19.3696364 L46.9833438,18.4150909 C47.07675,18.3215455 47.1854063,18.2518636 47.3007344,18.2050909 L54.0440938,15.5037273 L52.8974844,14.5854545 C51.9605625,13.8342273 50.9054531,12.6773182 49.981875,11.4545455 Z M55.7549531,16.8744545 L48.1919063,19.9041818 L48.0508437,20.0454545 L49.0039687,21 L56.234375,21 C57.2751875,21 57.8928125,20.4883636 58.0843906,19.4908636 C57.6354688,18.6709091 57.0778906,17.9349545 56.4736094,17.451 L55.7549531,16.8744545 Z M5.24409375,16.8744545 L4.5254375,17.451 C3.92115625,17.9349545 3.36453125,18.6709091 2.91560938,19.4908636 C3.1071875,20.4883636 3.7248125,21 4.765625,21 L11.9960313,21 L12.9491563,20.0454545 L12.8080938,19.9041818 L5.24409375,16.8744545 Z M56.234375,9.54545455 L53.375,9.54545455 L53.375,11.2445455 L56.234375,10.6718182 L56.234375,9.54545455 Z M7.625,9.54545455 L4.765625,9.54545455 L4.765625,10.6718182 L7.625,11.2445455 L7.625,9.54545455 Z M41.9375,1.90909091 L19.0625,1.90909091 C17.3287656,1.90909091 15.257625,3.2445 14.5389687,4.82618182 L12.9291406,8.37327273 C12.7623437,8.74172727 12.543125,9.13977273 12.3038906,9.54545455 L48.6961094,9.54545455 C48.456875,9.13977273 48.2386094,8.74172727 48.0708594,8.37327273 L46.4600781,4.82522727 C45.742375,3.2445 43.6712344,1.90909091 41.9375,1.90909091 Z"></path></clipPath></defs><g transform="translate(1.0 1.0)"><g clip-path="url(#i0)"><polygon points="0,0 61,0 61,42 0,42 0,0" stroke="none" fill="#000000"></polygon></g><path d="M54.0888906,13.0944545 C54.0745937,13.083 54.0602969,13.0686818 54.046,13.0572273 L57.3752656,12.39 C57.820375,12.3012273 58.140625,11.9098636 58.140625,11.4545455 L58.140625,8.59090909 C58.140625,8.064 57.713625,7.63636364 57.1875,7.63636364 L52.421875,7.63636364 C51.89575,7.63636364 51.46875,8.064 51.46875,8.59090909 L51.46875,10.2632727 C51.4468281,10.2336818 51.4249062,10.2040909 51.4029844,10.1745 C51.3429375,10.0084091 51.2361875,9.87286364 51.1008437,9.765 C50.5642344,9.00422727 50.1048281,8.2425 49.8055469,7.58386364 L48.1947656,4.03581818 C47.16825,1.77259091 44.4194375,0 41.9375,0 L19.0625,0 C16.5805625,0 13.83175,1.77259091 12.8052344,4.03581818 L11.1954063,7.58290909 C10.896125,8.24154545 10.4367188,9.00422727 9.90010938,9.765 C9.76476563,9.87286364 9.65896875,10.0084091 9.59796875,10.1745 C9.57604688,10.2040909 9.55507813,10.2327273 9.53220313,10.2632727 L9.53220313,8.59090909 C9.53220313,8.064 9.10520313,7.63636364 8.57907813,7.63636364 L3.8125,7.63636364 C3.286375,7.63636364 2.859375,8.064 2.859375,8.59090909 L2.859375,11.4545455 C2.859375,11.9098636 3.179625,12.3012273 3.6256875,12.39 L6.95495312,13.0572273 C6.94065625,13.0686818 6.92635937,13.083 6.9120625,13.0944545 L3.33498437,15.96 C1.46495312,17.4586364 0,20.5112727 0,22.9090909 L0,39.1363636 C0,40.7151818 1.28290625,42 2.859375,42 L10.484375,42 C12.0608437,42 13.34375,40.7151818 13.34375,39.1363636 L13.34375,37.2272727 L47.65625,37.2272727 L47.65625,39.1363636 C47.65625,40.7151818 48.9391562,42 50.515625,42 L58.140625,42 C59.7170937,42 61,40.7151818 61,39.1363636 L61,22.9090909 C61,20.5112727 59.5350469,17.4586364 57.6650156,15.96 L54.0888906,13.0944545 Z M49.0039688,35.3181818 L46.8184531,33.1294091 C45.8910625,32.2006364 44.202125,31.5 42.890625,31.5 L17.6328125,31.5 C16.3213125,31.5 14.632375,32.2006364 13.7049844,33.1294091 L11.5194688,35.3181818 L4.765625,35.3181818 C3.18915625,35.3181818 1.90625,34.0333636 1.90625,32.4545455 L1.90625,27.6818182 L2.859375,27.6818182 L2.859375,28.6363636 C2.859375,30.7420909 4.56928125,32.4545455 6.671875,32.4545455 L9.53125,32.4545455 C10.057375,32.4545455 10.484375,32.0269091 10.484375,31.5 C10.484375,30.9730909 10.057375,30.5454545 9.53125,30.5454545 L6.671875,30.5454545 C5.62057813,30.5454545 4.765625,29.6892273 4.765625,28.6363636 L4.765625,27.6818182 L6.671875,27.6818182 C7.46296875,27.6818182 8.6925,28.1915455 9.25198438,28.7518636 C9.43784375,28.938 9.68184375,29.0315455 9.92584375,29.0315455 C10.1698438,29.0315455 10.4138438,28.938 10.5997031,28.7518636 C10.972375,28.3786364 10.972375,27.7753636 10.5997031,27.4021364 C9.6723125,26.4733636 7.98432813,25.7727273 6.671875,25.7727273 L1.90625,25.7727273 L1.90625,22.9090909 C1.90625,22.5721364 1.959625,22.2084545 2.03492188,21.8371364 C2.64492188,22.4747727 3.53228125,22.9090909 4.765625,22.9090909 L12.390625,22.9090909 C12.6432031,22.9090909 12.8852969,22.8088636 13.0644844,22.6294091 L14.296875,21.3951818 L15.5292656,22.6294091 C15.7075,22.8088636 15.9505469,22.9090909 16.203125,22.9090909 L27.2460313,22.9090909 L29.8261406,25.4930455 C30.012,25.6791818 30.256,25.7727273 30.5,25.7727273 C30.744,25.7727273 30.988,25.6791818 31.1738594,25.4930455 L33.7539688,22.9090909 L44.796875,22.9090909 C45.0494531,22.9090909 45.2925,22.8088636 45.4707344,22.6294091 L46.703125,21.3951818 L47.9355156,22.6294091 C48.11375,22.8088636 48.3567969,22.9090909 48.609375,22.9090909 L56.234375,22.9090909 C57.4677188,22.9090909 58.3550781,22.4747727 58.9650781,21.8371364 C59.040375,22.2084545 59.09375,22.5721364 59.09375,22.9090909 L59.09375,25.7727273 L54.328125,25.7727273 C53.016625,25.7727273 51.3276875,26.4733636 50.4002969,27.4021364 C50.027625,27.7753636 50.027625,28.3786364 50.4002969,28.7518636 C50.5861563,28.938 50.8301563,29.0315455 51.0741563,29.0315455 C51.3181563,29.0315455 51.5621563,28.938 51.7480156,28.7518636 C52.3075,28.1915455 53.5370313,27.6818182 54.328125,27.6818182 L56.234375,27.6818182 L56.234375,28.6363636 C56.234375,29.6892273 55.3794219,30.5454545 54.328125,30.5454545 L51.46875,30.5454545 C50.942625,30.5454545 50.515625,30.9730909 50.515625,31.5 C50.515625,32.0269091 50.942625,32.4545455 51.46875,32.4545455 L54.328125,32.4545455 C56.4307188,32.4545455 58.140625,30.7420909 58.140625,28.6363636 L58.140625,27.6818182 L59.09375,27.6818182 L59.09375,32.4545455 C59.09375,34.0333636 57.8108438,35.3181818 56.234375,35.3181818 L49.0039688,35.3181818 Z M46.3085313,35.3181818 L14.2149063,35.3181818 L15.0527031,34.4791364 C15.6121875,33.9188182 16.8417188,33.4090909 17.6328125,33.4090909 L42.890625,33.4090909 C43.6817188,33.4090909 44.91125,33.9188182 45.4707344,34.4791364 L46.3085313,35.3181818 Z M11.018125,11.4545455 L49.981875,11.4545455 C50.9054531,12.6773182 51.9605625,13.8342273 52.8974844,14.5854545 L54.0440938,15.5037273 L47.3026406,18.2041364 C47.3016875,18.2041364 47.3016875,18.2050909 47.3007344,18.2050909 C47.1854063,18.2518636 47.07675,18.3215455 46.9833438,18.4150909 L46.0302188,19.3696364 L44.4022813,21 L33.359375,21 C33.1067969,21 32.86375,21.1002273 32.6855156,21.2796818 L30.5,23.4684545 L28.3144844,21.2796818 C28.13625,21.1002273 27.8932031,21 27.640625,21 L16.5977188,21 L14.9707344,19.3705909 L14.0176094,18.4160455 C13.9242031,18.3225 13.8155469,18.2528182 13.7002188,18.2060455 C13.6992656,18.2060455 13.6992656,18.2050909 13.6983125,18.2050909 L6.95685938,15.5046818 L8.10346875,14.5864091 C9.0394375,13.8342273 10.0945469,12.6773182 11.018125,11.4545455 Z M58.0843906,19.4908636 C57.8928125,20.4883636 57.2751875,21 56.234375,21 L49.0039687,21 L48.0508437,20.0454545 L48.1919063,19.9041818 L55.7549531,16.8744545 L56.4736094,17.451 C57.0778906,17.9349545 57.6354688,18.6709091 58.0843906,19.4908636 Z M53.375,9.54545455 L56.234375,9.54545455 L56.234375,10.6718182 L53.375,11.2445455 L53.375,9.54545455 Z M12.9291406,8.37327273 L14.5389687,4.82618182 C15.257625,3.2445 17.3287656,1.90909091 19.0625,1.90909091 L41.9375,1.90909091 C43.6712344,1.90909091 45.742375,3.2445 46.4600781,4.82522727 L48.0708594,8.37327273 C48.2386094,8.74172727 48.456875,9.13977273 48.6961094,9.54545455 L12.3038906,9.54545455 C12.543125,9.13977273 12.7623437,8.74172727 12.9291406,8.37327273 L12.9291406,8.37327273 Z M4.765625,9.54545455 L7.625,9.54545455 L7.625,11.2445455 L4.765625,10.6718182 L4.765625,9.54545455 Z M4.5254375,17.451 L5.24409375,16.8744545 L12.8080938,19.9041818 L12.9491563,20.0454545 L11.9960313,21 L4.765625,21 C3.7248125,21 3.1071875,20.4883636 2.91560938,19.4908636 C3.36453125,18.6709091 3.92115625,17.9349545 4.5254375,17.451 Z M10.484375,40.0909091 L2.859375,40.0909091 C2.33420313,40.0909091 1.90625,39.6623182 1.90625,39.1363636 L1.90625,36.2488636 C2.70496875,36.8540455 3.68859375,37.2272727 4.765625,37.2272727 L11.4375,37.2272727 L11.4375,39.1363636 C11.4375,39.6623182 11.0095469,40.0909091 10.484375,40.0909091 Z M58.140625,40.0909091 L50.515625,40.0909091 C49.9904531,40.0909091 49.5625,39.6623182 49.5625,39.1363636 L49.5625,37.2272727 L56.234375,37.2272727 C57.3114063,37.2272727 58.2950313,36.8540455 59.09375,36.2488636 L59.09375,39.1363636 C59.09375,39.6623182 58.6657969,40.0909091 58.140625,40.0909091 Z" stroke="#F6F6F6" stroke-width="0.8" fill="none" stroke-miterlimit="10"></path></g></svg>