<?xml version="1.0" standalone="no"?>
<!DOCTYPE svg PUBLIC "-//W3C//DTD SVG 20010904//EN"
 "http://www.w3.org/TR/2001/REC-SVG-20010904/DTD/svg10.dtd">
<svg version="1.0" xmlns="http://www.w3.org/2000/svg"
 width="512.000000pt" height="512.000000pt" viewBox="0 0 512.000000 512.000000"
 preserveAspectRatio="xMidYMid meet">

<g transform="translate(0.000000,512.000000) scale(0.100000,-0.100000)"
fill="#000000" stroke="none">
<path d="M3095 5111 c-11 -5 -74 -71 -140 -148 l-120 -140 -205 4 c-137 3
-241 0 -313 -10 l-108 -13 -133 137 c-80 84 -143 140 -159 144 -35 9 -27 12
-419 -160 -302 -132 -337 -150 -353 -178 -15 -30 -15 -45 -2 -217 l15 -185
-51 -44 c-93 -80 -251 -244 -317 -330 l-65 -84 -192 7 -192 7 -30 -28 c-43
-40 -305 -722 -296 -770 4 -25 33 -56 149 -155 l143 -123 -4 -200 c-3 -131 0
-239 9 -313 l14 -113 -126 -122 c-135 -131 -160 -161 -160 -191 0 -19 277
-664 308 -718 28 -48 51 -51 253 -35 l184 15 44 -52 c81 -93 259 -264 337
-322 l76 -58 -4 -198 -3 -197 25 -25 c28 -27 713 -296 755 -296 32 0 63 29
185 173 l105 123 205 -3 c136 -3 241 0 313 10 l108 13 128 -132 c71 -73 139
-137 151 -144 12 -7 35 -10 50 -7 24 5 635 268 700 302 49 25 53 54 38 260
l-13 187 67 55 c87 71 233 224 306 320 l57 76 192 -7 192 -7 30 28 c43 40 291
681 291 753 l0 49 -142 123 -143 124 4 195 c2 115 -2 243 -10 314 l-13 119
131 126 c131 126 153 152 153 188 0 16 -262 629 -303 709 -27 52 -52 56 -258
40 l-184 -14 -39 46 c-75 89 -262 267 -340 326 l-79 59 7 188 c7 169 6 191
-10 218 -10 16 -23 31 -28 34 -193 77 -720 276 -733 275 -10 0 -27 -4 -38 -8z
m351 -305 l269 -103 0 -189 c0 -104 4 -196 8 -204 5 -8 53 -49 109 -90 118
-89 257 -221 356 -341 42 -52 80 -88 94 -91 13 -2 101 2 197 9 96 7 175 12
176 11 8 -9 235 -537 235 -546 0 -6 -56 -64 -125 -129 -68 -64 -129 -129 -135
-144 -9 -20 -8 -53 4 -135 25 -175 29 -318 16 -471 -9 -105 -10 -145 -1 -161
6 -12 71 -73 145 -137 l133 -116 -107 -277 -108 -277 -177 3 c-116 3 -186 0
-203 -8 -15 -6 -53 -46 -85 -90 -98 -133 -199 -241 -320 -344 -76 -64 -120
-108 -124 -125 -4 -14 -1 -105 5 -201 6 -96 10 -175 9 -176 -8 -7 -537 -234
-545 -234 -5 0 -65 58 -132 129 -81 87 -131 132 -149 136 -15 3 -57 1 -92 -5
-144 -24 -312 -30 -482 -19 -147 10 -170 9 -191 -4 -13 -9 -72 -72 -132 -141
-59 -69 -113 -126 -119 -126 -5 0 -132 47 -280 104 l-270 104 4 176 c2 120 -1
186 -9 205 -6 15 -41 50 -78 77 -119 86 -235 191 -317 285 -163 189 -143 173
-221 171 -38 -1 -125 -7 -193 -12 -68 -6 -124 -10 -126 -8 -7 10 -235 540
-235 547 0 5 58 64 130 131 146 138 148 142 130 255 -22 138 -29 289 -19 462
8 124 7 178 -1 193 -6 11 -68 70 -138 131 -70 61 -128 116 -130 123 -1 6 45
133 102 281 l104 270 177 -3 c117 -3 186 0 204 8 16 6 50 41 77 78 114 158
209 257 382 401 35 29 67 63 72 75 4 12 2 99 -6 201 -8 98 -13 179 -11 180 9
8 538 235 546 235 5 0 63 -56 128 -125 64 -68 129 -129 144 -135 20 -9 54 -8
135 4 174 24 282 27 453 15 144 -10 164 -10 186 5 13 9 73 72 132 141 59 68
113 125 119 125 7 0 133 -47 280 -104z"/>
<path d="M2295 4200 c-352 -61 -650 -216 -900 -465 -316 -317 -485 -726 -485
-1175 0 -637 353 -1206 927 -1493 397 -199 902 -223 1321 -63 609 233 1032
803 1070 1443 30 488 -139 941 -475 1280 -260 262 -567 419 -935 477 -133 22
-391 20 -523 -4z m416 -170 c606 -62 1114 -484 1278 -1063 45 -157 55 -237 55
-417 -1 -129 -6 -188 -23 -270 -56 -268 -177 -511 -347 -700 -37 -41 -71 -76
-76 -78 -4 -2 -8 111 -8 250 0 196 -4 267 -15 313 -55 210 -248 373 -471 399
-70 9 -92 -2 -172 -83 -208 -212 -529 -209 -732 8 -71 75 -89 84 -153 76 -222
-28 -394 -159 -469 -360 -21 -56 -23 -79 -26 -334 l-3 -274 -46 44 c-87 85
-187 226 -256 365 -204 409 -204 901 0 1308 200 400 564 687 993 785 166 38
306 47 471 31z m-606 -1809 c124 -115 255 -170 432 -178 87 -5 129 -2 185 11
113 27 224 85 304 160 67 61 72 64 105 57 104 -24 199 -103 245 -204 l29 -62
3 -331 3 -332 -58 -35 c-497 -299 -1076 -299 -1565 1 l-58 35 0 292 c0 381 10
431 103 532 48 52 136 100 206 112 2 1 32 -25 66 -58z"/>
<path d="M2420 3644 c-98 -26 -180 -74 -262 -155 -63 -61 -85 -92 -117 -160
-113 -240 -64 -503 127 -686 108 -104 292 -171 438 -159 307 24 534 253 551
556 10 180 -42 314 -172 446 -86 87 -160 131 -270 159 -74 19 -222 18 -295 -1z
m298 -196 c109 -41 216 -159 242 -269 34 -143 1 -276 -97 -380 -162 -173 -425
-172 -588 2 -68 73 -98 145 -103 250 -5 102 12 165 66 247 102 156 299 217
480 150z"/>
</g>
</svg>
