<svg width="183" height="30" viewBox="0 0 183 30" fill="none" xmlns="http://www.w3.org/2000/svg">
<path d="M5.80435 12.4407C6.55837 11.9395 7.49934 11.6889 8.62976 11.6889C9.86541 11.6889 10.8757 11.9864 11.6582 12.5827C12.4407 13.179 12.9979 14.0148 13.3272 15.0914L16.7147 14.1543C16.1464 12.4284 15.1671 11.0605 13.7791 10.0494C12.39 9.03827 10.6739 8.53333 8.62976 8.53333C6.84933 8.53333 5.31405 8.91975 4.02516 9.69259C2.73503 10.4654 1.74205 11.5457 1.04622 12.9346C0.347914 14.3222 0 15.937 0 17.7778C0 19.6185 0.347914 21.2333 1.04498 22.6222C1.74081 24.0111 2.73379 25.0914 4.02392 25.8642C5.31405 26.637 6.84933 27.0235 8.62852 27.0235C10.6727 27.0235 12.3887 26.5185 13.7779 25.5074C15.1671 24.4963 16.1452 23.1284 16.7135 21.4025L13.326 20.4654C12.9966 21.5333 12.4395 22.3679 11.657 22.9679C10.8732 23.5679 9.86417 23.8679 8.62852 23.8679C7.49934 23.8679 6.55837 23.6173 5.80311 23.1161C5.04909 22.6148 4.48203 21.9086 4.10316 20.9963C3.72429 20.084 3.53486 19.0123 3.53486 17.779C3.53486 16.5457 3.72429 15.4741 4.10316 14.5617C4.48203 13.6494 5.04909 12.9432 5.80311 12.442L5.80435 12.4407Z" fill="#3C3C3C"/>
<path d="M31.6788 9.69136C30.3886 8.91852 28.8533 8.5321 27.0742 8.5321C25.295 8.5321 23.7584 8.91852 22.4696 9.69136C21.1794 10.4642 20.1864 11.5444 19.4906 12.9333C18.7936 14.3222 18.4456 15.937 18.4456 17.7778C18.4456 19.6185 18.7936 21.2333 19.4906 22.6222C20.1864 24.0111 21.1794 25.0914 22.4696 25.8642C23.7597 26.637 25.295 27.0235 27.0742 27.0235C28.8533 27.0235 30.3899 26.637 31.6788 25.8642C32.9689 25.0914 33.9619 24.0111 34.6577 22.6222C35.3535 21.2333 35.7027 19.6185 35.7027 17.7778C35.7027 15.937 35.3548 14.3222 34.6577 12.9333C33.9606 11.5444 32.9676 10.4642 31.6788 9.69136ZM31.5797 21.0074C31.2046 21.9284 30.6424 22.6383 29.8921 23.1395C29.1418 23.6407 28.2021 23.8827 27.0729 23.8667C25.9437 23.8506 25.004 23.5914 24.2537 23.0901C23.5034 22.5889 22.9413 21.8864 22.5661 20.9827C22.191 20.079 22.004 19.0099 22.004 17.7778C22.004 16.5457 22.191 15.4679 22.5661 14.5481C22.9413 13.6284 23.5034 12.9173 24.2537 12.416C25.004 11.9148 25.9437 11.6728 27.0729 11.6889C28.2021 11.7049 29.1418 11.9642 29.8921 12.4654C30.6424 12.9667 31.2046 13.6691 31.5797 14.5728C31.9549 15.4765 32.1418 16.5457 32.1418 17.7778C32.1418 19.0099 31.9536 20.0877 31.5797 21.0074Z" fill="#3C3C3C"/>
<path d="M50.528 20.7358L42.7885 8.90247H39.3762V26.6531H42.7885V14.8198L50.528 26.6531H53.9403V8.90247H50.528V20.7358Z" fill="#3C3C3C"/>
<path d="M65.0191 23.4975L60.5692 8.90247H57.1074L62.5465 26.6531H67.5659L73.0062 8.90247H69.5444L65.0191 23.4975Z" fill="#3C3C3C"/>
<path d="M76.2105 26.6531H87.8304V23.5222H79.572V18.9617H86.3471V15.8296H79.572V12.0333H87.8304V8.90247H76.2105V26.6531Z" fill="#3C3C3C"/>
<path d="M103.86 18.5852C104.602 17.5296 104.973 16.258 104.973 14.7704C104.973 13.7765 104.813 12.8741 104.492 12.0642C104.17 11.2543 103.67 10.5827 102.99 10.0481C102.31 9.51358 101.439 9.1642 100.375 9C100.145 8.95926 99.8823 8.9321 99.5901 8.91975C99.2979 8.90741 99.0651 8.90123 98.8918 8.90123H91.3751V26.6531H94.7379V20.637H98.4894L101.414 26.6531H105.221L102.006 20.0778C102.784 19.7346 103.402 19.237 103.86 18.5852ZM94.7366 12.0333H98.742C98.9153 12.0333 99.1047 12.042 99.3103 12.058C99.5158 12.0741 99.7052 12.1074 99.8786 12.1568C100.332 12.2802 100.682 12.4877 100.93 12.779C101.177 13.0704 101.348 13.3951 101.442 13.7531C101.536 14.1099 101.585 14.4494 101.585 14.7704C101.585 15.0914 101.538 15.4296 101.442 15.7877C101.347 16.1457 101.176 16.4704 100.93 16.7617C100.682 17.0531 100.332 17.2605 99.8786 17.384C99.7052 17.4333 99.5158 17.4667 99.3103 17.4827C99.1035 17.4988 98.9153 17.5074 98.742 17.5074H94.7366V12.0333Z" fill="#3C3C3C"/>
<path d="M124.6 17.2605H118.197V19.8494H121.016C120.835 20.7864 120.529 21.5543 120.101 22.1543C119.673 22.7543 119.146 23.1938 118.525 23.4728C117.902 23.7519 117.207 23.884 116.441 23.8667C115.312 23.8506 114.372 23.5914 113.622 23.0901C112.871 22.5889 112.309 21.8864 111.934 20.9827C111.559 20.079 111.372 19.0099 111.372 17.7778C111.372 16.5457 111.559 15.4679 111.934 14.5481C112.309 13.6284 112.871 12.9173 113.622 12.416C114.372 11.9148 115.312 11.6728 116.441 11.6889C117.579 11.6975 118.511 12.0111 119.242 12.6321C119.971 13.2531 120.496 14.0802 120.818 15.116L124.255 14.6235C123.81 12.6839 122.933 11.1839 121.621 10.1235C120.31 9.06296 118.51 8.53333 116.219 8.53333C114.669 8.53333 113.259 8.89506 111.985 9.61852C110.712 10.342 109.698 11.3914 108.944 12.7679C108.19 14.1444 107.812 15.8148 107.812 17.779C107.812 19.2827 108.037 20.6099 108.486 21.7605C108.935 22.9111 109.55 23.8765 110.328 24.6568C111.107 25.437 112.004 26.0272 113.018 26.4259C114.032 26.8247 115.099 27.0235 116.219 27.0235C117.933 27.0235 119.421 26.6519 120.683 25.9074C121.943 25.1642 122.92 24.1346 123.612 22.8198C124.304 21.5049 124.651 19.9963 124.651 18.2963C124.651 18.2556 124.646 18.0988 124.639 17.8284C124.63 17.5568 124.618 17.3679 124.602 17.2617L124.6 17.2605Z" fill="#3C3C3C"/>
<path d="M139.431 12.0333V8.90247H127.81V26.6531H139.431V23.5222H131.172V18.9617H137.947V15.8296H131.172V12.0333H139.431Z" fill="#3C3C3C"/>
<path d="M163.577 18.5025C164.053 18.0235 164.412 17.5 164.655 16.9321C164.898 16.3642 165.019 15.6494 165.019 14.7877C165.019 13.6198 164.76 12.5926 164.243 11.7062C163.725 10.8198 163.017 10.1296 162.116 9.63333C161.214 9.13827 160.194 8.89012 159.055 8.89012C157.811 8.89012 156.72 9.12839 155.783 9.6037C154.845 10.079 154.114 10.7519 153.589 11.6222C153.064 12.4926 152.801 13.5235 152.801 14.716H156.195C156.179 14.2321 156.288 13.784 156.522 13.3691C156.756 12.9543 157.085 12.6198 157.51 12.3654C157.934 12.1111 158.425 11.9852 158.982 11.9852C159.539 11.9852 159.98 12.1037 160.376 12.342C160.772 12.5802 161.079 12.9062 161.297 13.321C161.515 13.7358 161.624 14.2099 161.624 14.7407C161.624 15.1111 161.51 15.5099 161.285 15.937C161.058 16.3642 160.671 16.8198 160.121 17.3025L152.801 23.779V26.6309H165.018V23.537H157.921L161.818 20.1296C162.513 19.5259 163.099 18.984 163.575 18.5037L163.577 18.5025Z" fill="#3C3C3C"/>
<path d="M176.306 20.1272C177 19.5235 177.586 18.9815 178.063 18.5012C178.539 18.0222 178.898 17.4988 179.141 16.9309C179.384 16.363 179.504 15.6481 179.504 14.7864C179.504 13.6185 179.245 12.5914 178.729 11.7049C178.211 10.8185 177.503 10.1284 176.602 9.6321C175.7 9.13704 174.681 8.88889 173.541 8.88889C172.297 8.88889 171.206 9.12716 170.269 9.60247C169.331 10.0778 168.6 10.7506 168.075 11.621C167.55 12.4914 167.287 13.5222 167.287 14.7148H170.681C170.665 14.2309 170.774 13.7827 171.008 13.3679C171.242 12.9531 171.571 12.6185 171.996 12.3642C172.421 12.1099 172.911 11.984 173.468 11.984C174.025 11.984 174.466 12.1025 174.862 12.3407C175.258 12.579 175.565 12.9049 175.783 13.3198C176.001 13.7346 176.11 14.2086 176.11 14.7395C176.11 15.1099 175.997 15.5086 175.771 15.9358C175.544 16.363 175.157 16.8185 174.607 17.3012L167.287 23.7778V26.6296H179.504V23.5358H172.407L176.305 20.1284L176.306 20.1272Z" fill="#3C3C3C"/>
<path d="M182.889 4.44444L179.546 0H143.888V26.6667L148.345 30V4.44444H182.889Z" fill="#3C3C3C"/>
</svg>
