<?xml version="1.0" encoding="utf-8"?>
<!-- Generator: Adobe Illustrator 19.0.0, SVG Export Plug-In . SVG Version: 6.00 Build 0)  -->
<svg version="1.1" id="Capa_1" xmlns="http://www.w3.org/2000/svg" xmlns:xlink="http://www.w3.org/1999/xlink" x="0px" y="0px"
	 viewBox="-537 590 125 21" style="enable-background:new -537 590 125 21;" xml:space="preserve">
<style type="text/css">
	.st0{fill:#FFFFFF;}
	.st1{font-family:'Manrope-Bold';}
	.st2{font-size:16.3443px;}
</style>
<text id="XMLID_1_" transform="matrix(1 0 0 1 -515.8809 606.4441)" class="st0 st1 st2">CODERSTACK</text>
<g>
	<path class="st0" d="M-537,599.8C-537,599.8-537,599.8-537,599.8c0.1-0.2,0.1-0.3,0.2-0.3c0.1-0.1,0.3-0.2,0.4-0.2c0,0,0.1,0,0.1,0
		c0.6,0,1.1,0,1.7,0c0.1,0,0.2,0,0.3,0.1c0.2,0.1,0.3,0.3,0.3,0.5c0,0,0,0.1,0,0.1c0,0.6,0,1.2,0,1.7c0,0.1,0,0.1,0,0.2
		c0.1,0.3,0.3,0.5,0.6,0.5c0,0,0.1,0,0.1,0c0.8,0,1.6,0,2.3,0c0.1,0,0.1,0,0.2,0c0.3,0.1,0.4,0.3,0.5,0.6c0,0,0,0,0,0
		c0,0.8,0,1.6,0,2.4c0,0.1,0,0.1,0,0.2c-0.1,0.3-0.3,0.4-0.6,0.4c-0.1,0-0.1,0-0.2,0c-0.8,0-1.5,0-2.3,0c-0.1,0-0.1,0-0.2,0
		c-0.3-0.1-0.4-0.4-0.4-0.6c0-0.8,0-1.6,0-2.3c0-0.1,0-0.1,0-0.2c-0.1-0.3-0.3-0.5-0.5-0.5c0,0-0.1,0-0.1,0c-0.6,0-1.2,0-1.7,0
		c-0.1,0-0.1,0-0.2,0c-0.2-0.1-0.4-0.2-0.5-0.5c0,0,0-0.1,0-0.1C-537,601.2-537,600.5-537,599.8z"/>
	<path class="st0" d="M-527.7,592C-527.7,592-527.7,592-527.7,592c0.2,0.1,0.3,0.1,0.4,0.2c0.1,0.1,0.1,0.2,0.1,0.3c0,0,0,0,0,0.1
		c0,0.6,0,1.2,0,1.8c0,0.1,0,0.1,0,0.2c-0.1,0.3-0.3,0.4-0.6,0.5c0,0-0.1,0-0.1,0c-0.6,0-1.2,0-1.7,0c-0.1,0-0.2,0-0.3,0.1
		c-0.2,0.1-0.3,0.3-0.3,0.5c0,0,0,0.1,0,0.1c0,0.8,0,1.6,0,2.3c0,0.1,0,0.1,0,0.2c-0.1,0.3-0.3,0.5-0.6,0.5c-0.1,0-0.1,0-0.2,0
		c-0.7,0-1.5,0-2.2,0c-0.1,0-0.2,0-0.3-0.1c-0.2-0.1-0.3-0.3-0.3-0.5c0-0.8,0-1.6,0-2.5c0-0.3,0.2-0.6,0.6-0.6c0.1,0,0.3,0,0.4,0
		c0.7,0,1.3,0,2,0c0.1,0,0.1,0,0.2,0c0.3-0.1,0.5-0.3,0.5-0.5c0,0,0-0.1,0-0.1c0-0.6,0-1.2,0-1.7c0-0.1,0-0.1,0-0.2
		c0.1-0.2,0.2-0.4,0.4-0.4c0,0,0.1,0,0.1,0C-529,592-528.4,592-527.7,592z"/>
	<path class="st0" d="M-529.1,609.1C-529.1,609.1-529.1,609.1-529.1,609.1c-0.3-0.1-0.4-0.2-0.5-0.5c0-0.1,0-0.1,0-0.2
		c0-0.6,0-1.2,0-1.8c0-0.2,0.1-0.4,0.3-0.5c0.1-0.1,0.2-0.1,0.3-0.1c0,0,0,0,0.1,0c0.6,0,1.2,0,1.8,0c0.1,0,0.2,0,0.3-0.1
		c0.2-0.1,0.3-0.3,0.3-0.5c0,0,0-0.1,0-0.1c0-0.8,0-1.6,0-2.3c0-0.1,0-0.1,0-0.2c0.1-0.3,0.3-0.4,0.6-0.4c0,0,0,0,0,0
		c0.8,0,1.6,0,2.4,0c0.1,0,0.1,0,0.2,0c0.3,0.1,0.4,0.3,0.4,0.6c0,0.4,0,0.8,0,1.2c0,0.4,0,0.9,0,1.3c0,0.1,0,0.2-0.1,0.3
		c-0.1,0.2-0.3,0.3-0.5,0.3c-0.3,0-0.6,0-0.9,0c-0.5,0-1,0-1.5,0c-0.1,0-0.1,0-0.2,0c-0.3,0.1-0.4,0.3-0.4,0.6c0,0,0,0,0,0.1
		c0,0.6,0,1.2,0,1.7c0,0.1,0,0.1,0,0.2c-0.1,0.2-0.2,0.4-0.5,0.5c0,0,0,0-0.1,0C-527.8,609.1-528.4,609.1-529.1,609.1z"/>
	<path class="st0" d="M-519.9,601.3C-519.9,601.3-519.9,601.3-519.9,601.3c-0.1,0.3-0.3,0.4-0.5,0.5c0,0-0.1,0-0.1,0
		c-0.6,0-1.2,0-1.7,0c-0.1,0-0.1,0-0.2,0c-0.3-0.1-0.4-0.3-0.4-0.6c0,0,0-0.1,0-0.1c0-0.6,0-1.2,0-1.7c0-0.1,0-0.1,0-0.2
		c-0.1-0.3-0.3-0.4-0.6-0.5c0,0-0.1,0-0.1,0c-0.8,0-1.6,0-2.3,0c-0.1,0-0.2,0-0.3,0c-0.2-0.1-0.4-0.3-0.4-0.6c0,0,0,0,0,0
		c0-0.8,0-1.6,0-2.4c0-0.1,0-0.1,0-0.2c0.1-0.2,0.3-0.4,0.6-0.4c0,0,0,0,0.1,0c0.8,0,1.6,0,2.4,0c0.1,0,0.1,0,0.2,0
		c0.3,0.1,0.5,0.3,0.5,0.6c0,0.5,0,0.9,0,1.4c0,0.3,0,0.7,0,1c0,0.1,0,0.1,0,0.2c0.1,0.3,0.3,0.4,0.6,0.4c0,0,0,0,0.1,0
		c0.6,0,1.2,0,1.7,0c0.1,0,0.1,0,0.2,0c0.2,0.1,0.3,0.2,0.4,0.3c0,0,0,0,0,0.1c0,0,0,0,0,0C-519.9,599.9-519.9,600.6-519.9,601.3z"
		/>
</g>
</svg>
