<svg width="32" height="32" viewBox="0 0 32 32" fill="none" xmlns="http://www.w3.org/2000/svg">
<circle cx="16" cy="16" r="16" fill="#3C3C3C"/>
<path fill-rule="evenodd" clip-rule="evenodd" d="M12.8356 13.6603H10.4531V21.3332H12.8356V13.6603ZM13.0133 11.2299C13.0133 10.467 12.3933 9.84607 11.6316 9.84607C10.8655 9.84607 10.25 10.467 10.25 11.2299C10.25 11.9927 10.8655 12.6136 11.6316 12.6136C12.3933 12.6136 13.0133 11.9927 13.0133 11.2299ZM16.6165 13.6605H14.3404V21.3334H16.7184V17.5369C16.7184 16.539 16.9044 15.5677 18.1443 15.5677C19.3666 15.5677 19.3798 16.7119 19.3798 17.6034V21.3334H21.7579V17.1289C21.7579 15.062 21.3106 13.4742 18.9016 13.4742C17.7413 13.4742 16.9664 14.1085 16.6475 14.7117H16.6165V13.6605Z" fill="white"/>
</svg>
