<svg width="32" height="32" viewBox="0 0 32 32" fill="none" xmlns="http://www.w3.org/2000/svg">
<circle cx="16" cy="16" r="16" fill="#3C3C3C"/>
<path fill-rule="evenodd" clip-rule="evenodd" d="M12.0133 17.0794L8.75013 15.7949C8.41871 15.6639 8.41583 15.1704 8.74631 15.036L22.1385 9.58723C22.4224 9.47142 22.7153 9.73376 22.6535 10.0482L20.2502 22.2407C20.1935 22.5285 19.8735 22.6591 19.6476 22.4859L16.3669 19.9738C16.1676 19.8212 15.896 19.8294 15.7054 19.9933L13.8865 21.5572C13.6753 21.7392 13.3572 21.6378 13.2764 21.3635L12.0133 17.0794ZM19.4444 12.2531L13.0669 16.3958C12.8225 16.5549 12.7074 16.8662 12.7864 17.1577L13.4759 19.713C13.5249 19.8941 13.7741 19.8756 13.7978 19.6885L13.9771 18.2871C14.0109 18.0233 14.1303 17.7802 14.3153 17.5986L19.5785 12.4387C19.6769 12.3424 19.559 12.1789 19.4444 12.2531Z" fill="white"/>
<path d="M13.0709 16.3958L19.4483 12.2531C19.5629 12.1789 19.6808 12.3424 19.5824 12.4387L14.3192 17.5986C14.1342 17.7802 14.0148 18.0233 13.981 18.2871L13.8017 19.6885C13.778 19.8756 13.5288 19.8941 13.4798 19.713L12.7903 17.1577C12.7113 16.8662 12.8264 16.5549 13.0709 16.3958Z" fill="#EAEAEA"/>
</svg>
