<svg width="32" height="32" viewBox="0 0 32 32" fill="none" xmlns="http://www.w3.org/2000/svg">
<circle cx="16" cy="16" r="16" fill="#3C3C3C"/>
<path fill-rule="evenodd" clip-rule="evenodd" d="M22.5813 11.9291C22.0986 12.1432 21.5788 12.288 21.0343 12.3535C21.5904 12.0198 22.0175 11.4925 22.2183 10.8639C21.6978 11.1725 21.1216 11.3965 20.5076 11.5169C20.0164 10.9934 19.3167 10.6666 18.542 10.6666C17.0545 10.6666 15.8481 11.872 15.8481 13.3593C15.8481 13.5712 15.8728 13.7761 15.9184 13.9735C13.6801 13.8615 11.696 12.7886 10.3676 11.1596C10.1351 11.5573 10.003 12.0198 10.003 12.5136C10.003 13.4477 10.4788 14.2722 11.2009 14.7545C10.7591 14.7408 10.3436 14.6196 9.9814 14.4177C9.9814 14.4291 9.9814 14.4405 9.9814 14.452C9.9814 15.7565 10.909 16.8445 12.1416 17.0922C11.9153 17.1539 11.6782 17.1866 11.4319 17.1866C11.2589 17.1866 11.0897 17.1699 10.9252 17.1379C11.2681 18.2077 12.2629 18.9864 13.4415 19.0085C12.5193 19.7301 11.3577 20.1606 10.0957 20.1606C9.87868 20.1606 9.66397 20.1484 9.45312 20.1232C10.6448 20.8875 12.0605 21.3332 13.582 21.3332C18.5358 21.3332 21.2452 17.2301 21.2452 13.6717C21.2452 13.5544 21.2421 13.4393 21.2375 13.3235C21.7634 12.9441 22.2206 12.4694 22.5813 11.9299V11.9291Z" fill="white"/>
</svg>
