<svg width="125" height="21" viewBox="0 0 125 21" fill="none" xmlns="http://www.w3.org/2000/svg">
<path d="M27.1221 16.4768V4.46539H32.1843C32.3008 4.46539 32.4562 4.47095 32.6505 4.48207C32.8503 4.48763 33.028 4.50431 33.1834 4.53212C33.8994 4.64333 34.485 4.87967 34.9402 5.24112C35.4009 5.60258 35.7395 6.05857 35.9559 6.60909C36.1724 7.15405 36.2806 7.76296 36.2806 8.43583C36.2806 9.10869 36.1696 9.72038 35.9476 10.2709C35.7311 10.8159 35.3925 11.2691 34.9318 11.6305C34.4767 11.992 33.8939 12.2283 33.1834 12.3395C33.028 12.3618 32.8503 12.3785 32.6505 12.3896C32.4507 12.4007 32.2953 12.4063 32.1843 12.4063H29.3867V16.4768H27.1221ZM29.3867 10.2876H32.0844C32.2009 10.2876 32.3286 10.282 32.4673 10.2709C32.6061 10.2598 32.7338 10.2375 32.8503 10.2042C33.1556 10.1208 33.3915 9.98174 33.558 9.78711C33.7246 9.58692 33.8384 9.36727 33.8994 9.12815C33.966 8.88347 33.9993 8.6527 33.9993 8.43583C33.9993 8.21895 33.966 7.99096 33.8994 7.75184C33.8384 7.50717 33.7246 7.28751 33.558 7.09288C33.3915 6.89269 33.1556 6.75089 32.8503 6.66748C32.7338 6.63411 32.6061 6.61187 32.4673 6.60075C32.3286 6.58963 32.2009 6.58407 32.0844 6.58407H29.3867V10.2876Z" fill="white"/>
<path d="M36.2904 16.4768L39.9538 4.46539H43.3342L46.9976 16.4768H44.6663L41.4025 5.8834H41.8355L38.6217 16.4768H36.2904ZM38.4885 13.9744V11.8557H44.8162V13.9744H38.4885Z" fill="white"/>
<path d="M48.4899 16.4768V4.46539H53.5521C53.6687 4.46539 53.8241 4.47095 54.0183 4.48207C54.2182 4.48763 54.3958 4.50431 54.5512 4.53212C55.2672 4.64333 55.8528 4.87967 56.308 5.24112C56.7687 5.60258 57.1073 6.05857 57.3238 6.60909C57.5402 7.15405 57.6485 7.76296 57.6485 8.43583C57.6485 9.44234 57.3987 10.3043 56.8991 11.0216C56.3996 11.7334 55.6169 12.1727 54.5512 12.3395L53.5521 12.4063H50.7546V16.4768H48.4899ZM55.2506 16.4768L52.886 11.5888L55.2173 11.1384L57.815 16.4768H55.2506ZM50.7546 10.2876H53.4522C53.5687 10.2876 53.6964 10.282 53.8352 10.2709C53.9739 10.2598 54.1016 10.2375 54.2182 10.2042C54.5235 10.1208 54.7594 9.98174 54.9259 9.78711C55.0924 9.58692 55.2062 9.36727 55.2672 9.12815C55.3338 8.88347 55.3671 8.6527 55.3671 8.43583C55.3671 8.21895 55.3338 7.99096 55.2672 7.75184C55.2062 7.50717 55.0924 7.28751 54.9259 7.09288C54.7594 6.89269 54.5235 6.75089 54.2182 6.66748C54.1016 6.63411 53.9739 6.61187 53.8352 6.60075C53.6964 6.58963 53.5687 6.58407 53.4522 6.58407H50.7546V10.2876Z" fill="white"/>
<path d="M58.8128 16.4768L62.4762 4.46539H65.8566L69.52 16.4768H67.1887L63.9249 5.8834H64.3579L61.1441 16.4768H58.8128ZM61.0109 13.9744V11.8557H67.3386V13.9744H61.0109Z" fill="white"/>
<path d="M72.4225 16.4768L68.7591 4.46539H71.0904L74.0877 14.3414L77.135 4.46539H79.4663L75.8029 16.4768H72.4225Z" fill="white"/>
<path d="M80.887 16.4768V4.46539H83.1517V16.4768H80.887Z" fill="white"/>
<path d="M90.1771 16.727C89.289 16.727 88.487 16.5713 87.7709 16.2599C87.0604 15.943 86.4748 15.4925 86.0141 14.9086C85.559 14.3192 85.2704 13.6185 85.1482 12.8066L87.5128 12.4563C87.6793 13.1459 88.0235 13.6769 88.5452 14.0495C89.067 14.4221 89.6609 14.6084 90.327 14.6084C90.6989 14.6084 91.0597 14.55 91.4094 14.4332C91.7591 14.3164 92.0449 14.144 92.2669 13.916C92.4945 13.688 92.6083 13.4072 92.6083 13.0736C92.6083 12.9512 92.5889 12.8344 92.55 12.7232C92.5167 12.6065 92.4584 12.498 92.3752 12.3979C92.2919 12.2978 92.1726 12.2033 92.0172 12.1143C91.8673 12.0253 91.6758 11.9447 91.4427 11.8724L88.3288 10.9549C88.0956 10.8882 87.8237 10.7936 87.5128 10.6713C87.2075 10.5489 86.9106 10.3738 86.6219 10.1458C86.3333 9.91779 86.0919 9.6175 85.8976 9.24493C85.7089 8.86679 85.6145 8.39134 85.6145 7.81857C85.6145 7.01225 85.8171 6.34217 86.2223 5.80833C86.6275 5.27449 87.1687 4.87689 87.8459 4.61553C88.523 4.35417 89.2724 4.22627 90.0939 4.23183C90.9209 4.24295 91.6591 4.38475 92.3086 4.65724C92.958 4.92972 93.502 5.32732 93.9405 5.85004C94.379 6.36719 94.6954 7.00113 94.8896 7.75184L92.4418 8.16891C92.353 7.77965 92.1892 7.45156 91.9506 7.18464C91.7119 6.91772 91.426 6.71475 91.093 6.57572C90.7655 6.4367 90.4214 6.36163 90.0606 6.35051C89.7053 6.33939 89.3695 6.38944 89.0531 6.50065C88.7423 6.60631 88.487 6.76201 88.2871 6.96776C88.0929 7.17352 87.9957 7.41819 87.9957 7.70179C87.9957 7.96315 88.0762 8.17725 88.2372 8.34407C88.3981 8.50534 88.6007 8.63602 88.845 8.73611C89.0892 8.83621 89.339 8.91962 89.5943 8.98635L91.6758 9.55355C91.9866 9.63697 92.3308 9.74818 92.7082 9.8872C93.0857 10.0207 93.4465 10.2097 93.7906 10.4544C94.1403 10.6935 94.4261 11.0105 94.6482 11.4053C94.8758 11.8001 94.9895 12.3006 94.9895 12.9067C94.9895 13.5518 94.8536 14.1162 94.5816 14.6C94.3151 15.0782 93.9543 15.4758 93.4992 15.7928C93.044 16.1042 92.5278 16.3378 91.9506 16.4935C91.3788 16.6492 90.7877 16.727 90.1771 16.727Z" fill="white"/>
<path d="M96.9861 16.4768V4.46539H99.2507V16.4768H96.9861Z" fill="white"/>
<path d="M106.892 16.727C105.693 16.727 104.658 16.4657 103.787 15.943C102.921 15.4202 102.252 14.689 101.78 13.7492C101.314 12.8094 101.081 11.7167 101.081 10.4711C101.081 9.22546 101.314 8.13276 101.78 7.19298C102.252 6.2532 102.921 5.52195 103.787 4.99923C104.658 4.47651 105.693 4.21515 106.892 4.21515C108.091 4.21515 109.124 4.47651 109.99 4.99923C110.861 5.52195 111.53 6.2532 111.996 7.19298C112.468 8.13276 112.704 9.22546 112.704 10.4711C112.704 11.7167 112.468 12.8094 111.996 13.7492C111.53 14.689 110.861 15.4202 109.99 15.943C109.124 16.4657 108.091 16.727 106.892 16.727ZM106.892 14.5917C107.653 14.6028 108.286 14.4388 108.791 14.0995C109.296 13.7603 109.673 13.2793 109.923 12.6565C110.178 12.0337 110.306 11.3052 110.306 10.4711C110.306 9.63697 110.178 8.91406 109.923 8.30237C109.673 7.69067 109.296 7.21522 108.791 6.87601C108.286 6.5368 107.653 6.36163 106.892 6.35051C106.132 6.33939 105.499 6.50343 104.994 6.84265C104.489 7.18186 104.109 7.66287 103.853 8.28568C103.604 8.9085 103.479 9.63697 103.479 10.4711C103.479 11.3052 103.604 12.0281 103.853 12.6398C104.109 13.2515 104.489 13.727 104.994 14.0662C105.499 14.4054 106.132 14.5806 106.892 14.5917Z" fill="white"/>
<path d="M114.366 16.4768V4.46539H116.664L121.876 12.473V4.46539H124.174V16.4768H121.876L116.664 8.46919V16.4768H114.366Z" fill="white"/>
<path d="M0 12.6398L4.06319 16.7772V4.0994H13.7845L17.9996 0H0V12.6398Z" fill="white"/>
<path d="M17.9996 8.36018L13.8342 4.22283V16.9006H4.12712L0 21L17.9996 21L17.9996 8.36018Z" fill="white"/>
</svg>
