<?xml version="1.0" encoding="utf-8"?>
<!-- Generator: Adobe Illustrator 19.0.0, SVG Export Plug-In . SVG Version: 6.00 Build 0)  -->
<svg version="1.1" id="Capa_1" xmlns="http://www.w3.org/2000/svg" xmlns:xlink="http://www.w3.org/1999/xlink" x="0px" y="0px"
	 viewBox="-537 590 125 21" style="enable-background:new -537 590 125 21;" xml:space="preserve">
<style type="text/css">
	.st0{font-family:'Manrope-SemiBold';}
	.st1{font-size:16.7729px;}
</style>
<g>
	<path d="M-512.4,592.8c0,3.3,0,6.6,0,9.9c-2.2,2.2-4.4,4.4-6.6,6.6c-4.9,0-9.7,0-14.5,0c0,0,0-0.1,0-0.1c1.4-1.5,2.8-2.9,4.2-4.4
		c4.1,0,8.2,0,12.3,0c0-2.6,0-5.2,0-7.8"/>
	<path d="M-534.8,608.4c0-3.3,0-6.6,0-9.9c2.2-2.2,4.5-4.5,6.7-6.7c4.8,0,9.6,0,14.5,0c-1.5,1.5-3,3-4.5,4.5c-4,0-8.1,0-12.2,0
		c0,2.6,0,5.2,0,7.7C-531.8,605.5-533.3,606.9-534.8,608.4z"/>
</g>
<text transform="matrix(1 0 0 1 -507.2769 606.3472)" class="st0 st1">CoderStack</text>
</svg>
