<?xml version="1.0" encoding="UTF-8"?><svg version="1.1" width="43px" height="51px" viewBox="0 0 43.0 51.0" xmlns="http://www.w3.org/2000/svg" xmlns:xlink="http://www.w3.org/1999/xlink"><defs><clipPath id="i0"><path d="M11.0541,0 C11.3759,0 11.6384,0.259186 11.6384,0.576966 C11.6384,0.894746 11.3759,1.153936 11.0541,1.153936 L1.16863,1.153936 L1.16863,10.912786 C1.16863,11.230586 0.906143,11.489786 0.584315,11.489786 C0.262486,11.489786 0,11.232886 0,10.915086 L0,0.576966 C0,0.259186 0.262486,0 0.584315,0 Z"></path></clipPath><clipPath id="i1"><path d="M11.054,0 C11.3758,0 11.6383,0.256932 11.6383,0.576972 L11.636,10.915052 C11.636,11.232852 11.3758,11.492052 11.0517,11.492052 C10.7276,11.492052 10.4674,11.232852 10.4674,10.915052 L10.4674,1.153932 L0.5843,1.153932 C0.2602,1.153932 0,0.894752 0,0.576972 C0,0.259182 0.2602,0 0.5843,0 Z"></path></clipPath><clipPath id="i2"><path d="M11.1485578,0.0075133 C11.425675,0.052012 11.6383,0.28891 11.6383,0.577 L11.636,10.9151 C11.636,11.2351 11.3758,11.4921 11.0517,11.4921 L0.5843,11.4921 C0.2602,11.4921 0,11.2351 0,10.9151 C0,10.5951 0.2602,10.3381 0.5843,10.3381 L10.4697,10.3381 L10.4697,0.577 C10.4697,0.2569 10.73,0 11.0541,0 L11.053,0 Z"></path></clipPath><clipPath id="i3"><path d="M0.584315,0 C0.906143,0 1.16863,0.2569 1.16863,0.577 L1.16863,10.3381 L11.0541,10.3381 C11.3759,10.3381 11.6384,10.5951 11.6384,10.9151 C11.6384,11.2351 11.3759,11.4921 11.0541,11.4921 L0.584315,11.4921 C0.262486,11.4921 0,11.2351 0,10.9151 L0,0.577 C0,0.2569 0.262486,0 0.584315,0 Z"></path></clipPath><clipPath id="i4"><path d="M14.2906589,0 C21.8546589,0 23.6509589,5.54897 24.0504589,8.85527 C24.2763589,10.72117 23.4706589,19.23387 22.1057589,21.93167 C21.7953589,22.54247 21.3388589,23.19607 20.7887589,23.84067 C20.7796589,23.85417 20.7773589,23.86997 20.7682589,23.88347 C19.7091589,25.31687 20.6655589,28.91847 21.1448589,30.25497 C22.6441589,32.71607 28.2362589,34.64077 28.2933589,34.65877 C28.5991589,34.76247 28.7612589,35.09147 28.6562589,35.39127 C28.5740589,35.63017 28.3458589,35.78137 28.1038589,35.78137 C28.0397589,35.78137 27.9758589,35.77017 27.9119589,35.75437 C27.6636589,35.66867 21.7837589,33.64477 20.1061589,30.79597 L20.0627589,30.70137 C19.9212589,30.31377 19.0173589,27.72867 19.1337589,25.49067 C18.9763589,25.62587 18.8165589,25.75887 18.6521589,25.88727 C17.0316589,27.16077 15.4978589,27.86167 14.3314589,27.86167 C13.1651589,27.86167 11.6290589,27.16067 10.0107589,25.88727 C9.85555886,25.76337 9.70495886,25.63717 9.55425886,25.50867 C9.65465886,27.73317 8.76225886,30.27997 8.62295886,30.66307 L8.57965886,30.75777 C6.90205886,33.60647 1.02255886,35.63037 0.773768856,35.71377 C0.712138856,35.73407 0.648238856,35.74527 0.584328856,35.74527 C0.342378856,35.74527 0.116418856,35.59427 0.0319688563,35.35537 C-0.0730311437,35.05567 0.0890288563,34.72667 0.394878856,34.62297 C0.449218856,34.60497 6.04375886,32.67797 7.54335886,30.22137 C8.00905886,28.92297 8.91745886,25.49267 8.00215886,23.98487 C7.39275886,23.29297 6.89515886,22.58757 6.56195886,21.93167 C5.19705886,19.23607 4.39135886,10.72367 4.61725886,8.85527 C5.01465886,5.54657 6.80205886,0 14.2906589,0 Z M14.2878589,1.15411 C8.03175886,1.15411 6.20575886,5.41597 5.77435886,8.99047 C5.57125886,10.67867 6.37695886,18.99267 7.60495886,21.41547 C7.86745886,21.93157 8.25315886,22.48597 8.72105886,23.04047 C8.77125886,23.07647 8.82155886,23.11487 8.86035886,23.16667 C8.88765886,23.20727 8.90825886,23.25227 8.93565886,23.29287 C9.46055886,23.88107 10.0745589,24.46037 10.7387589,24.98317 C12.1105589,26.06277 13.4548589,26.70737 14.3313589,26.70737 C15.2101589,26.70737 16.5521589,26.06277 17.9239589,24.98317 C19.3048589,23.89687 20.4780589,22.56037 21.0554589,21.41547 C22.2834589,18.99047 23.0891589,10.67637 22.8860589,8.99047 C22.4565589,5.41597 20.6147589,1.15411 14.2878589,1.15411 Z"></path></clipPath><clipPath id="i5"><path d="M1.22745209,7.36330079 C1.56051209,4.61130079 3.04642209,-0.00219921347 9.27986209,0 C9.52186209,0 9.71816209,0.193900787 9.71816209,0.432800787 C9.71816209,0.671700787 9.52186209,0.865500787 9.27986209,0.865500787 C4.00750209,0.865500787 2.46683209,4.45550079 2.10392209,7.46660079 C1.93272209,8.87960079 2.61064209,15.8572008 3.64003209,17.8924008 C3.86142209,18.3296008 4.18555209,18.7961008 4.58042209,19.2627008 C4.62379209,19.2897008 4.66259209,19.3235008 4.69454209,19.3663008 C4.71737209,19.3979008 4.73563209,19.4340008 4.75617209,19.4678008 C5.19897209,19.9659008 5.71712209,20.4549008 6.27632209,20.8944008 C7.43346209,21.8049008 8.57026209,22.3481008 9.31426209,22.3481008 C9.72516209,22.3481008 10.2637621,22.1813008 10.8686621,21.8680008 C11.0809621,21.7554008 11.3479621,21.8388008 11.4598621,22.0506008 C11.5716621,22.2625008 11.4894621,22.5239008 11.2749621,22.6343008 C10.5330621,23.0175008 9.87346209,23.2135008 9.31196209,23.2135008 C8.34656209,23.2135008 7.07516209,22.6298008 5.72852209,21.5705008 C5.56875209,21.4443008 5.41126209,21.3158008 5.25833209,21.1829008 C5.37701209,23.0580008 4.60327209,25.2644008 4.48458209,25.5912008 L4.45035209,25.6611008 C3.85464209,26.6708008 2.57189209,27.6737008 0.636352086,28.6429008 C0.572442086,28.6744008 0.503972086,28.6902008 0.437782086,28.6902008 C0.278002086,28.6902008 0.125082086,28.6046008 0.0474720856,28.4535008 C-0.0620879144,28.2417008 0.0246420856,27.9803008 0.239202086,27.8721008 C1.97619209,27.0021008 3.16077209,26.1006008 3.67204209,25.2600008 C4.06463209,24.1692008 4.83152209,21.2708008 4.05094209,19.9906008 C3.54422209,19.4137008 3.12653209,18.8277008 2.85035209,18.2801008 C1.71142209,16.0287008 1.04037209,8.92230079 1.22753209,7.36270079 Z"></path></clipPath><clipPath id="i6"><path d="M2.23622896,0 C8.46542896,0 9.95132896,4.6137 10.282229,7.3655 C10.469429,8.9228 9.79842896,16.0314 8.65942896,18.2806 C8.38322896,18.826 7.96782896,19.4142 7.46112896,19.989 C6.67822896,21.2691 7.44512896,24.1697 7.83772896,25.2605 C8.35132896,26.1012 9.53582896,27.0027 11.270629,27.8726 C11.485129,27.9808 11.571929,28.2422 11.462329,28.4541 C11.384729,28.6051 11.229529,28.6908 11.069729,28.6908 C11.003529,28.6908 10.935029,28.675 10.871129,28.6434 C8.93562896,27.6743 7.65062896,26.6713 7.05712896,25.6617 L7.02292896,25.5918 C6.90422896,25.265 6.13052896,23.0586 6.25142896,21.1834 C6.09852896,21.3164 5.94102896,21.4449 5.78122896,21.5711 C4.43462896,22.6304 3.16322896,23.2141 2.19772896,23.2141 C1.63622896,23.2141 0.976628957,23.018 0.234828957,22.6349 C0.0202289565,22.5245 -0.0618710435,22.263 0.0499289565,22.0512 C0.161828957,21.8393 0.426528957,21.7582 0.641128957,21.8686 C1.24822896,22.1819 1.78692896,22.3487 2.19772896,22.3487 C2.94182896,22.3487 4.07852896,21.8055 5.23572896,20.895 C5.79722896,20.4555 6.31312896,19.9642 6.75592896,19.4683 C6.77872896,19.4345 6.79472896,19.3985 6.81752896,19.3669 C6.84942896,19.3218 6.89052896,19.288 6.93392896,19.261 C7.32882896,18.7967 7.65292896,18.3279 7.87432896,17.8929 C8.90602896,15.858 9.58162896,8.8825 9.41042896,7.4671 C9.04992896,4.4563 7.50932896,0.866 2.23682896,0.866 C1.99432896,0.8654 1.79572896,0.6716 1.79802896,0.4327 C1.79802896,0.1938 1.99432896,0 2.23622896,0 Z"></path></clipPath></defs><g transform="translate(0.0 0.8455811999999696)"><g transform="translate(0.0 0.0003659999999996444)"><g clip-path="url(#i0)"><polygon points="0,0 11.6384,0 11.6384,11.489786 0,11.489786 0,0" stroke="none" fill="#000000"></polygon></g></g><g transform="translate(31.112299999999998 -8.881784197001252e-16)"><g clip-path="url(#i1)"><polygon points="0,0 11.6383,0 11.6383,11.492052 0,11.492052 0,0" stroke="none" fill="#000000"></polygon></g></g><g transform="translate(31.112299999999998 37.87925200000001)"><g clip-path="url(#i2)"><polygon points="0,0 11.6383,0 11.6383,11.4921 0,11.4921 0,0" stroke="none" fill="#000000"></polygon></g></g><g transform="translate(0.0 37.87925200000001)"><g clip-path="url(#i3)"><polygon points="0,0 11.6384,0 11.6384,11.4921 0,11.4921 0,0" stroke="none" fill="#000000"></polygon></g></g><g transform="translate(7.494141143720423 6.5828820000000015)"><g clip-path="url(#i4)"><polygon points="3.55271368e-15,0 28.6882237,0 28.6882237,35.78137 3.55271368e-15,35.78137 3.55271368e-15,0" stroke="none" fill="#000000"></polygon></g></g><g transform="translate(3.0566379144388716 9.322351213466048)"><g clip-path="url(#i5)"><polygon points="-1.11022302e-16,-7.85971759e-07 11.5097719,-7.85971759e-07 11.5097719,28.6902008 -1.11022302e-16,28.6902008 -1.11022302e-16,-7.85971759e-07" stroke="none" fill="#000000"></polygon></g></g><g transform="translate(28.546871043480188 9.318752000000002)"><g clip-path="url(#i6)"><polygon points="1.4779844e-15,0 11.5098139,0 11.5098139,28.6908 1.4779844e-15,28.6908 1.4779844e-15,0" stroke="none" fill="#000000"></polygon></g></g></g></svg>