<?xml version="1.0" encoding="UTF-8"?><svg version="1.1" width="45px" height="46px" viewBox="0 0 45.0 46.0" xmlns="http://www.w3.org/2000/svg" xmlns:xlink="http://www.w3.org/1999/xlink"><defs><clipPath id="i0"><path d="M2.04605,30.0008 C9.20011,30.0008 14.9992,35.7999 14.9992,42.954 L14.9992,44.318 C14.9992,44.6942 14.6951,45 14.3172,45 C13.941,45 13.637,44.6941 13.637,44.318 L13.637,42.954 C13.637,36.5536 8.44623,31.3629 2.04591,31.3629 L0.682017,31.363 C0.305845,31.363 0,31.0589 0,30.6828 C0,30.3049 0.305859,30.0008 0.682017,30.0008 L2.04605,30.0008 Z M2.04605,35.4552 C6.18742,35.4552 9.54481,38.8126 9.54481,42.954 L9.54481,44.318 C9.54481,44.6942 9.24071,45 8.8628,45 C8.48662,45 8.18254,44.6941 8.18254,44.318 L8.18254,42.954 C8.18254,39.5649 5.43507,36.8173 2.04591,36.8173 L0.682017,36.8175 C0.305845,36.8175 0,36.5134 0,36.1372 C0,35.7593 0.305859,35.4552 0.682017,35.4552 L2.04605,35.4552 Z M38.8578,0 C42.2521,0 44.9993,2.74571 44.9993,6.14157 L44.9993,38.8578 C44.9993,42.2486 42.2519,44.9993 38.8627,44.9993 L19.7711,44.9993 C19.3949,44.9993 19.0908,44.6935 19.0908,44.3173 C19.0908,43.9412 19.3949,43.6353 19.7711,43.6353 L38.8627,43.6353 C41.4977,43.6353 43.6349,41.4961 43.6349,38.8577 L43.6349,6.14148 C43.6349,3.4995 41.4974,1.36385 38.8573,1.36385 L6.14112,1.36385 C3.49914,1.36385 1.36349,3.49959 1.36349,6.13608 L1.36403,25.2282 C1.36403,25.6044 1.05817,25.9085 0.682017,25.9085 C0.305859,25.9085 0,25.6044 0,25.2282 L0,6.13662 C0,2.7458 2.74746,0 6.14157,0 L38.8578,0 Z M2.04605,41.5917 C2.7984,41.5917 3.40833,42.2017 3.40833,42.954 C3.40833,43.7081 2.79836,44.318 2.04605,44.318 C1.29194,44.318 0.682017,43.7081 0.682017,42.954 C0.682017,42.2016 1.29199,41.5917 2.04605,41.5917 Z"></path></clipPath><clipPath id="i1"><path d="M1.5664,0.177586211 L5.8884,3.14818621 C6.4665,3.54558621 6.4665,4.39908621 5.8884,4.79648621 L1.5664,7.76708621 C0.9029,8.22308621 0,7.74808621 0,6.94298621 L0,1.00168621 C0,0.196586211 0.9029,-0.278413789 1.5664,0.177586211 Z"></path></clipPath></defs><g transform="translate(0.0 0.009033199999976205)"><g clip-path="url(#i0)"><polygon points="0,0 44.9993,0 44.9993,45 0,45 0,0" stroke="none" fill="#000000"></polygon></g><g transform="translate(20.812000000000005 17.853013788920205)"><g clip-path="url(#i1)"><polygon points="0,4.4408921e-16 6.321975,4.4408921e-16 6.321975,7.94467242 0,7.94467242 0,4.4408921e-16" stroke="none" fill="#000000"></polygon></g></g></g></svg>