<?xml version="1.0" encoding="UTF-8"?><svg version="1.1" width="50px" height="51px" viewBox="0 0 50.0 51.0" xmlns="http://www.w3.org/2000/svg" xmlns:xlink="http://www.w3.org/1999/xlink"><defs><clipPath id="i0"><path d="M8.5089147,0.00220345294 C8.7775147,-0.0233065471 9.0229147,0.175633453 9.0461147,0.445973453 C9.0720147,0.713763453 8.8705147,0.953503453 8.5967147,0.976453453 C3.0694147,1.46352345 1.4266147,5.57724345 1.0211147,8.94124345 C0.889414704,10.0381435 1.1942147,14.4146435 1.8709147,17.9852435 C1.9200147,18.2505435 1.7418147,18.5081435 1.4732147,18.5565435 C1.4422147,18.5616435 1.4112147,18.5642435 1.3802147,18.5642435 C1.1480147,18.5645435 0.938814704,18.4013435 0.897514704,18.1666435 C0.244014704,14.7157435 -0.122785296,10.1479435 0.0374147044,8.82684345 C0.672114704,3.56004345 3.6815147,0.425573453 8.5089147,0.00220345294 Z"></path></clipPath><clipPath id="i1"><path d="M0.485225678,8.22412904e-05 L0.574693168,0.00641243333 C6.45059317,0.959602433 7.90469317,5.87440243 8.25089317,8.72070243 C8.40839317,10.0343024 8.04679317,14.5920024 7.39589317,18.0376024 C7.35199317,18.2723024 7.14539317,18.4380024 6.91029317,18.4380024 C6.87929317,18.4380024 6.84829317,18.4355024 6.81729317,18.4304024 C6.54609317,18.3819024 6.37049317,18.1243024 6.41959317,17.8591024 C7.09109317,14.2913024 7.39589317,9.92500243 7.26409317,8.83600243 C6.88469317,5.69380243 5.38919317,1.77897243 0.414593168,0.973022433 C0.145993168,0.927112433 -0.037406832,0.677182433 0.006493168,0.409382433 C0.050393168,0.144142433 0.303493168,-0.0369375667 0.574693168,0.00641243333 Z"></path></clipPath><clipPath id="i2"><path d="M6.85387087,0.0512915723 C7.10187087,-0.0685084277 7.39887087,0.0283915723 7.52027087,0.270691572 C7.78887087,0.798591572 8.18407087,1.36479157 8.65937087,1.92849157 C8.71357087,1.96159157 8.76267087,2.00239157 8.80137087,2.05599157 C8.82977087,2.09419157 8.85047087,2.13759157 8.87627087,2.17839157 C9.41357087,2.78029157 10.0412709,3.37449157 10.7204709,3.91009157 C10.9581709,4.09629157 11.1958709,4.27229157 11.4282709,4.44059157 C11.6529709,4.59369157 11.7072709,4.89969157 11.5522709,5.12159157 C11.4566709,5.25679157 11.3017709,5.33069157 11.1441709,5.33069157 C11.0460709,5.33069157 10.9478709,5.30269157 10.8626709,5.24399157 C10.6121709,5.07309157 10.3564709,4.88439157 10.1007709,4.68289157 C9.88377087,4.51199157 9.67197087,4.33349157 9.46537087,4.15239157 C9.63837087,6.52179157 8.60267087,9.39599157 8.54327087,9.55669157 L8.50457087,9.63579157 C6.82577087,12.4870916 0.908370874,14.5223916 0.657870874,14.6090916 C0.606170874,14.6268916 0.551970874,14.6345916 0.497670874,14.6345916 C0.291070874,14.6345916 0.0973708743,14.5070916 0.0275708743,14.3029916 C-0.0628291257,14.0479916 0.0766708743,13.7699916 0.334970874,13.6806916 C0.391170874,13.6628916 6.09447087,11.6990916 7.62357087,9.17929157 C8.09887087,7.85819157 9.03127087,4.33349157 8.07817087,2.77269157 C7.46857087,2.07889157 6.96497087,1.36989157 6.63177087,0.709291572 C6.51037087,0.467091572 6.60847087,0.173791572 6.85387087,0.0512915723 Z"></path></clipPath><clipPath id="i3"><path d="M7.387,0.271734724 C7.511,0.029534724 7.8055,-0.069965276 8.0534,0.052434724 C8.2988,0.174834724 8.3995,0.468134724 8.2755,0.710434724 C7.963,1.32503472 7.5058,1.98053472 6.9505,2.62833472 C6.9428,2.64363472 6.9402,2.66153472 6.9299,2.67423472 C5.8321,4.15633472 6.8136,7.85703472 7.3018,9.21633472 C8.828,11.7387347 14.531,13.6974347 14.5904,13.7178347 C14.8515,13.8068347 14.9884,14.0848347 14.9005,14.3398347 C14.8282,14.5438347 14.6371,14.6714347 14.4305,14.6714347 C14.3788,14.6714347 14.3246,14.6637347 14.2703,14.6458347 C14.0197,14.5617347 8.1025,12.5239347 6.4236,9.67253472 L6.3849,9.59353472 C6.3255,9.43033472 5.2743,6.50753472 5.4706,4.12803472 C5.2562,4.31673472 5.0366,4.50293472 4.8093,4.68143472 C3.1847,5.95663472 1.6557,6.65793472 0.496,6.65793472 C0.2222,6.65793472 0,6.43863472 0,6.16833472 C0,5.89793472 0.2222,5.67863472 0.496,5.67863472 C1.4026,5.67863472 2.7844,5.01803472 4.1895,3.91373472 C5.5997,2.80433472 6.793,1.44493472 7.387,0.271734724 Z"></path></clipPath><clipPath id="i4"><path d="M25,0 C38.7851,0 50,11.073952 50,24.685652 C50,38.297452 38.7851,49.371352 25,49.371352 C11.2149,49.371352 0,38.297452 0,24.685652 C0,11.073952 11.2149,0 25,0 Z M1.47793,23.769452 C1.46501,24.072952 1.45465,24.376452 1.45465,24.685052 C1.45465,37.505752 12.0183,47.934552 24.9973,47.934552 C25.4261,47.934552 25.8523,47.921852 26.2759,47.898852 C23.6904,41.229452 22.2595,34.246652 21.9883,27.222652 C15.5963,26.980352 9.23428,25.988352 3.10254,24.233652 Z M48.5222,23.782452 C40.9804,26.105952 33.0325,27.284252 25.0801,27.284252 C24.535,27.284252 23.9926,27.266352 23.4477,27.256152 C23.7266,34.229152 25.1679,41.158452 27.7817,47.766452 C39.4564,46.404852 48.5455,36.575352 48.5455,24.685352 C48.5455,24.381852 48.5352,24.083452 48.5222,23.782452 Z M27.7952,1.607062 L27.1081,3.507142 C24.4994,10.732152 23.2648,18.294152 23.3939,25.833252 C31.8806,26.011752 40.3866,24.830952 48.4245,22.313652 C47.309,11.515552 38.6768,2.884792 27.7952,1.607062 Z M25,1.438352 C12.8323,1.438352 2.78971,10.599452 1.57835,22.303452 L3.50779,22.856852 C9.49248,24.568252 15.7016,25.532252 21.9393,25.777152 C21.8179,18.092452 23.0783,10.387552 25.7387,3.024712 L26.2992,1.476602 C25.8679,1.451102 25.4365,1.438352 25,1.438352 Z"></path></clipPath></defs><g transform="translate(0.0 0.8455811999999696)"><g transform="translate(15.217785295618016 6.075808547061021)"><g clip-path="url(#i0)"><polygon points="-6.80011603e-16,3.33066907e-16 9.04835665,3.33066907e-16 9.04835665,18.5645435 -6.80011603e-16,18.5645435 -6.80011603e-16,3.33066907e-16" stroke="none" fill="#000000"></polygon></g></g><g transform="translate(26.479506832001974 6.181149566665686)"><g clip-path="url(#i1)"><polygon points="-4.77048956e-16,3.2959746e-17 8.28757912,3.2959746e-17 8.28757912,18.4380024 -4.77048956e-16,18.4380024 -4.77048956e-16,3.2959746e-17" stroke="none" fill="#000000"></polygon></g></g><g transform="translate(10.576129125668288 27.373160427724628)"><g clip-path="url(#i2)"><polygon points="-1.66533454e-16,1.22124533e-15 11.6404459,1.22124533e-15 11.6404459,14.6345916 -1.66533454e-16,14.6345916 -1.66533454e-16,1.22124533e-15" stroke="none" fill="#000000"></polygon></g></g><g transform="translate(24.494100000000003 27.36951727600114)"><g clip-path="url(#i3)"><polygon points="0,-1.38777878e-17 14.9270852,-1.38777878e-17 14.9270852,14.6714347 0,14.6714347 0,-1.38777878e-17" stroke="none" fill="#000000"></polygon></g></g><g clip-path="url(#i4)"><polygon points="0,0 50,0 50,49.371352 0,49.371352 0,0" stroke="none" fill="#000000"></polygon></g></g></svg>