<?xml version="1.0" encoding="UTF-8"?><svg version="1.1" width="30px" height="50px" viewBox="0 0 30.0 50.0" xmlns="http://www.w3.org/2000/svg" xmlns:xlink="http://www.w3.org/1999/xlink"><defs><clipPath id="i0"><path d="M24.5454738,0 C27.5579217,0 30,2.46772143 30,5.51181429 L30,44.4882143 C30,47.5322857 27.5579217,50 24.5454738,50 L5.45455445,50 C2.44208535,50 0,47.5322857 0,44.4882143 L0,5.51181429 C0,2.46772143 2.44208535,0 5.45455445,0 L24.5454738,0 Z M24.5454738,1.5748 L5.45455445,1.5748 C3.30279282,1.5748 1.55844009,3.33746429 1.55844009,5.51181429 L1.55844009,44.4882143 C1.55844009,46.6625714 3.30279282,48.4252143 5.45455445,48.4252143 L24.5454738,48.4252143 C26.6972425,48.4252143 28.441574,46.6625 28.441574,44.4882143 L28.441574,5.51181429 C28.441574,3.33746429 26.6972425,1.5748 24.5454738,1.5748 Z M15.1947767,40.5512143 C16.0555266,40.5512143 16.7532734,41.2562143 16.7532734,42.126 C16.7532734,42.9957143 16.0555266,43.7007857 15.1947767,43.7007857 C14.3340975,43.7007857 13.6363508,42.9957143 13.6363508,42.126 C13.6363508,41.2562143 14.3340975,40.5512143 15.1947767,40.5512143 Z M19.4805011,4.72439286 C19.9109114,4.72439286 20.2597494,5.07692857 20.2597494,5.5118 C20.2597494,5.94666429 19.9109114,6.2992 19.4805011,6.2992 L10.909123,6.2992 C10.4787128,6.2992 10.1298747,5.94666429 10.1298747,5.5118 C10.1298747,5.07692857 10.4787128,4.72439286 10.909123,4.72439286 L19.4805011,4.72439286 Z"></path></clipPath></defs><g clip-path="url(#i0)"><polygon points="0,0 30,0 30,50 0,50 0,0" stroke="none" fill="#000000"></polygon></g></svg>