<?xml version="1.0" encoding="UTF-8"?><svg version="1.1" width="50px" height="51px" viewBox="0 0 50.0 51.0" xmlns="http://www.w3.org/2000/svg" xmlns:xlink="http://www.w3.org/1999/xlink"><g transform="translate(0.0 0.009033199999976205)"><g transform="translate(14.9004 0.0)"><path d="M0.5,0 L0.5,12.7" stroke="#000000" stroke-width="1" fill="none" stroke-miterlimit="10"></path></g><g transform="translate(24.5 0.0)"><path d="M0.5,0 L0.5,12.7" stroke="#000000" stroke-width="1" fill="none" stroke-miterlimit="10"></path></g><g transform="translate(34.0996 0.0)"><path d="M0.5,0 L0.5,12.7" stroke="#000000" stroke-width="1" fill="none" stroke-miterlimit="10"></path></g><g transform="translate(14.9004 37.2998)"><path d="M0.5,0 L0.5,12.7" stroke="#000000" stroke-width="1" fill="none" stroke-miterlimit="10"></path></g><g transform="translate(24.5 37.2998)"><path d="M0.5,0 L0.5,12.7" stroke="#000000" stroke-width="1" fill="none" stroke-miterlimit="10"></path></g><g transform="translate(34.0996 37.2998)"><path d="M0.5,0 L0.5,12.7" stroke="#000000" stroke-width="1" fill="none" stroke-miterlimit="10"></path></g><g transform="translate(0.0 34.1001)"><path d="M0,0.5 L12.7,0.5" stroke="#000000" stroke-width="1" fill="none" stroke-miterlimit="10"></path></g><g transform="translate(0.0 24.5)"><path d="M0,0.5 L12.7,0.5" stroke="#000000" stroke-width="1" fill="none" stroke-miterlimit="10"></path></g><g transform="translate(0.0 14.8999)"><path d="M0,0.5 L12.7,0.5" stroke="#000000" stroke-width="1" fill="none" stroke-miterlimit="10"></path></g><g transform="translate(37.2998 34.1001)"><path d="M0,0.5 L12.7,0.5" stroke="#000000" stroke-width="1" fill="none" stroke-miterlimit="10"></path></g><g transform="translate(37.2998 24.5)"><path d="M0,0.5 L12.7,0.5" stroke="#000000" stroke-width="1" fill="none" stroke-miterlimit="10"></path></g><g transform="translate(37.2998 14.8999)"><path d="M0,0.5 L12.7,0.5" stroke="#000000" stroke-width="1" fill="none" stroke-miterlimit="10"></path></g><g transform="translate(15.400399999999998 15.399899999999999)"><polygon points="0,0 19.2,0 19.2,19.2 0,19.2 0,0 0,0" stroke="#000000" stroke-width="1" fill="none" stroke-miterlimit="10"></polygon></g><g transform="translate(19.0 19.0)"><polygon points="0,0 12,0 12,12 0,12 0,0 0,0" stroke="#000000" stroke-width="1" fill="none" stroke-miterlimit="10"></polygon></g></g></svg>