<?xml version="1.0" encoding="UTF-8"?><svg version="1.1" width="43px" height="51px" viewBox="0 0 43.0 51.0" xmlns="http://www.w3.org/2000/svg" xmlns:xlink="http://www.w3.org/1999/xlink"><defs><clipPath id="i0"><path d="M13.1887107,0.32018287 C13.4762063,-0.0440092821 14.0051182,-0.106073423 14.3698184,0.178102209 C14.7360927,0.463902071 14.8002032,0.989794423 14.5127076,1.35234804 L5.60764095,12.6390921 C5.4515862,12.8382926 5.21503553,12.9673723 4.96209947,12.9951345 C4.92918558,12.9983543 4.89634325,13 4.86350091,13 C4.64340719,13 4.4265333,12.9215791 4.25573885,12.7811942 L0.303496616,9.50669183 C-0.0546207784,9.21111082 -0.102274362,8.68355846 0.195023894,8.32916177 C0.492393702,7.97311938 1.02295124,7.92582356 1.37942294,8.22140457 L4.75216612,11.0140763 Z"></path></clipPath><clipPath id="i1"><path d="M14.3739146,0 C18.2995146,0 21.2358146,1.57946 22.8612146,4.57176 C23.0173146,4.85486 22.9094146,5.21096 22.6247146,5.36386 C22.3377146,5.51906 21.9819146,5.41176 21.8281146,5.12876 C20.3999146,2.50161 17.8906146,1.16867 14.3734146,1.16867 C8.08091463,1.16867 6.24421463,5.48486 5.81031463,9.10486 C5.60601463,10.81456 6.41641463,19.23446 7.65151463,21.68806 C7.91321463,22.21076 8.30121463,22.77226 8.77181463,23.33376 C8.82471463,23.36796 8.87521463,23.40676 8.91421463,23.46156 L8.99001463,23.58936 C9.51801463,24.18506 10.1355146,24.77176 10.8036146,25.30126 C12.1833146,26.39456 13.5356146,27.04736 14.4171146,27.04736 C15.3010146,27.04736 16.6509146,26.39456 18.0307146,25.30126 C19.4196146,24.20106 20.5974146,22.84986 21.1828146,21.68806 C22.0047146,20.05136 22.6980146,15.55706 22.9597146,11.96216 C22.9850146,11.64036 23.2719146,11.40296 23.5888146,11.42116 C23.9125146,11.44636 24.1558146,11.72476 24.1329146,12.04656 C23.9446146,14.62806 23.3063146,20.07666 22.2342146,22.21076 C21.9220146,22.82936 21.4628146,23.49126 20.9096146,24.14406 C20.9004146,24.15776 20.8981146,24.17366 20.8889146,24.18736 C19.8237146,25.63906 20.7856146,29.28646 21.2677146,30.63996 C22.7758146,33.13246 28.4005146,35.08166 28.4579146,35.09996 C28.7655146,35.20496 28.9285146,35.53816 28.8229146,35.84176 C28.7403146,36.08366 28.5107146,36.23656 28.2673146,36.23656 C28.2055146,36.23706 28.1390146,36.22566 28.0747146,36.20966 C27.8249146,36.12296 21.9107146,34.07326 20.2233146,31.18826 L20.1797146,31.09236 C20.0374146,30.69986 19.1282146,28.08176 19.2453146,25.81526 C19.0869146,25.95226 18.9262146,26.08686 18.7609146,26.21696 C17.1309146,27.50666 15.5882146,28.21646 14.4150146,28.21646 C13.2419146,28.21646 11.6968146,27.50656 10.0691146,26.21696 C9.91301463,26.09146 9.76151463,25.96366 9.61001463,25.83356 C9.71091463,28.08636 8.81331463,30.66556 8.67331463,31.05356 L8.62961463,31.14946 C6.94231463,34.03446 1.02852463,36.08416 0.778284629,36.16856 C0.716294629,36.18916 0.652014629,36.20056 0.587734629,36.20056 C0.344384629,36.20056 0.117094629,36.04766 0.0321546288,35.80566 C-0.0734553712,35.50216 0.0895446288,35.16886 0.397184629,35.06386 C0.451844629,35.04566 6.07901463,33.09416 7.58731463,30.60626 C8.05571463,29.29126 8.96941463,25.81736 8.04881463,24.29036 C7.43591463,23.58966 6.93541463,22.87516 6.60021463,22.21096 C5.22731463,19.48106 4.41691463,10.86026 4.64421463,8.96806 C5.04381463,5.61716 6.84171463,0 14.3739146,0 Z"></path></clipPath><clipPath id="i2"><path d="M11.1185,0 C11.4422,0 11.7062,0.262486 11.7062,0.584313 C11.7062,0.906143 11.4422,1.168633 11.1185,1.168633 L1.17544,1.168633 L1.17544,11.054103 C1.17544,11.375903 0.911425,11.638403 0.587721,11.638403 C0.261718,11.638403 0,11.375903 0,11.054103 L0,0.584313 C0,0.262486 0.264016,0 0.587721,0 Z"></path></clipPath><clipPath id="i3"><path d="M11.1163,0 C11.4423,0 11.704,0.262486 11.704,0.584313 L11.7063,11.054103 C11.7063,11.375903 11.4446,11.638403 11.1186,11.638403 C10.7926,11.638403 10.5308,11.375903 10.5308,11.054103 L10.5308,1.168633 L0.5878,1.168633 C0.2618,1.168633 0,0.906143 0,0.584313 C0,0.262486 0.2618,0 0.5878,0 Z"></path></clipPath><clipPath id="i4"><path d="M11.1163,0 C11.4423,0 11.704,0.2602 11.704,0.5843 L11.7063,11.0517 C11.7063,11.3758 11.4446,11.636 11.1186,11.636 L0.5878,11.636 C0.2618,11.636 0,11.3758 0,11.0517 C0,10.7276 0.2618,10.4674 0.5878,10.4674 L10.5285,10.4674 L10.5285,0.5843 C10.5285,0.2602 10.7902,0 11.1162,0 Z"></path></clipPath><clipPath id="i5"><path d="M0.587721,0 C0.911425,0 1.17544,0.2602 1.17544,0.5843 L1.17544,10.4674 L11.1162,10.4674 C11.4422,10.4674 11.7039,10.7299 11.7062,11.0517 C11.7062,11.3758 11.4422,11.636 11.1185,11.636 L0.587721,11.636 C0.264016,11.636 0,11.3758 0,11.0517 L0,0.5843 C0,0.2602 0.264016,0 0.587721,0 Z"></path></clipPath></defs><g transform="translate(0.0 0.6008301999999617)"><g transform="translate(19.452894107515043 10.034179774205143)"><g clip-path="url(#i0)"><polygon points="1.38777878e-16,6.38378239e-16 14.6925469,6.38378239e-16 14.6925469,13 1.38777878e-16,13 1.38777878e-16,6.38378239e-16" stroke="none" fill="#000000"></polygon></g></g><g transform="translate(7.1796853712002715 6.5732430000000015)"><g clip-path="url(#i1)"><polygon points="2.22044605e-16,0 28.8550646,0 28.8550646,36.23706 2.22044605e-16,36.23706 2.22044605e-16,0" stroke="none" fill="#000000"></polygon></g></g><g clip-path="url(#i2)"><polygon points="0,0 11.7062,0 11.7062,11.638403 0,11.638403 0,0" stroke="none" fill="#000000"></polygon></g><g transform="translate(31.2939 0.0)"><g clip-path="url(#i3)"><polygon points="0,0 11.7063,0 11.7063,11.638403 0,11.638403 0,0" stroke="none" fill="#000000"></polygon></g></g><g transform="translate(31.2939 38.363803000000004)"><g clip-path="url(#i4)"><polygon points="0,0 11.7063,0 11.7063,11.636 0,11.636 0,0" stroke="none" fill="#000000"></polygon></g></g><g transform="translate(0.0 38.363803000000004)"><g clip-path="url(#i5)"><polygon points="0,0 11.7062,0 11.7062,11.636 0,11.636 0,0" stroke="none" fill="#000000"></polygon></g></g></g></svg>