<?xml version="1.0" encoding="UTF-8"?><svg version="1.1" width="67px" height="52px" viewBox="0 0 67.0 52.0" xmlns="http://www.w3.org/2000/svg" xmlns:xlink="http://www.w3.org/1999/xlink"><defs><clipPath id="i0"><path d="M13.826,0 C21.126,0 22.826,5.5 23.226,8.7 C23.426,10.5 22.626,18.9 21.326,21.5 C21.026,22.1 20.526,22.8 20.026,23.4 C19.026,24.8 19.926,28.4 20.426,29.7 C21.926,32.2 27.326,34.1 27.426,34.1 C27.726,34.2 27.826,34.4 27.926,34.7 C27.826,34.9 27.626,35 27.426,35 L27.226,35 C26.926,34.9 21.226,32.9 19.626,30.1 L19.626,30 C19.526,29.6 18.526,27 18.726,24.8 C18.526,25 18.326,25.1 18.126,25.3 C16.526,26.5 15.026,27.2 13.926,27.2 C12.726,27.2 11.326,26.5 9.72600996,25.3 C9.62600996,25.1 9.42600996,25 9.22600996,24.8 C9.32600996,27 8.42600996,29.6 8.32600996,30 L8.32600996,30.1 C6.62600996,32.9 0.926012959,34.9 0.726012959,35 L0.526012959,35 C0.326012959,35 0.126012959,34.9 0.0260129589,34.7 C-0.0739870411,34.4 0.126012959,34.1 0.426012959,34.1 C0.526012959,34 5.92600996,32.1 7.42600996,29.7 C7.82600996,28.4 8.72600996,25 7.82600996,23.5 C7.22600996,22.8 6.72600996,22.1 6.42600996,21.5 C5.02600996,18.8 4.32600996,10.5 4.52600996,8.7 C4.82600996,5.4 6.62600996,0 13.826,0 Z M13.826,0.9 C7.72600996,0.9 5.92600996,5.2 5.52600996,8.7 C5.32600996,10.4 6.12600996,18.6 7.32600996,21 C7.62600996,21.5 7.92600996,22.1 8.42600996,22.6 C8.42600996,22.6 8.52600996,22.6 8.52600996,22.7 C8.62600996,22.7 8.62600996,22.8 8.62600996,22.8 C9.22600996,23.4 9.82600996,24 10.426,24.5 C11.726,25.6 13.126,26.2 13.926,26.2 C14.726,26.2 16.126,25.6 17.426,24.5 C18.726,23.5 19.926,22.1 20.426,21 C21.626,18.6 22.426,10.4 22.226,8.7 C21.426,2.2 17.226,0.9 13.826,0.9 Z"></path></clipPath><clipPath id="i1"><path d="M13.7375,0 C21.0375,0 22.7375,5.5 23.1375,8.7 C23.3375,10.5 22.5375,18.9 21.2375,21.5 C20.9375,22.1 20.4375,22.8 19.9375,23.4 C18.9375,24.8 19.8375,28.4 20.3375,29.7 C21.8375,32.2 27.2375,34.1 27.3375,34.1 C27.6375,34.2 27.7375,34.4 27.9375,34.7 C27.8375,34.9 27.6375,35 27.4375,35 L27.2375,35 C26.9375,34.9 21.2375,32.9 19.6375,30.1 L19.6375,30 C19.5375,29.6 18.5375,27 18.7375,24.8 C18.5375,25 18.3375,25.1 18.1375,25.3 C16.5375,26.5 15.0375,27.2 13.9375,27.2 C12.7375,27.2 11.3375,26.5 9.7375,25.3 C9.6375,25.1 9.4375,25 9.2375,24.8 C9.3375,27 8.4375,29.6 8.3375,30 L8.3375,30.1 C6.6375,32.9 0.9375,34.9 0.7375,35 L0.5375,35 C0.3375,35 0.1375,34.9 0.0375,34.7 C-0.0625,34.5 0.0375,34.2 0.3375,34.1 C0.4375,34 5.8375,32.1 7.3375,29.7 C7.7375,28.4 8.6375,25 7.7375,23.5 C7.1375,22.8 6.6375,22.1 6.3375,21.5 C5.0375,18.9 4.2375,10.5 4.4375,8.7 C4.7375,5.4 6.5375,0 13.7375,0 Z M13.7375,0.9 C7.6375,0.9 5.8375,5.2 5.4375,8.7 C5.2375,10.4 6.0375,18.6 7.2375,21 C7.5375,21.5 7.8375,22.1 8.3375,22.6 C8.3375,22.6 8.4375,22.6 8.4375,22.7 C8.5375,22.7 8.5375,22.8 8.5375,22.8 C9.1375,23.4 9.7375,24 10.3375,24.5 C11.6375,25.6 13.0375,26.2 13.8375,26.2 C14.6375,26.2 16.0375,25.6 17.3375,24.5 C18.6375,23.5 19.8375,22.1 20.3375,21 C21.5375,18.6 22.3375,10.4 22.1375,8.7 C21.3375,2.2 17.1375,0.9 13.7375,0.9 Z"></path></clipPath></defs><g transform="translate(4.1127350414171815e-08 1.0090331999999762)"><g transform="translate(0.0 7.399900000000002)"><g clip-path="url(#i0)"><polygon points="0,0 27.926,0 27.926,35 0,35 0,0" stroke="none" fill="#000000"></polygon></g></g><g transform="translate(38.18849995887261 7.399900000000002)"><g clip-path="url(#i1)"><polygon points="0,0 27.9375,0 27.9375,35 0,35 0,0" stroke="none" fill="#000000"></polygon></g></g><g transform="translate(33.125999958872605 0.0)"><path d="M0.5,0 L0.5,50" stroke="#000000" stroke-width="1" fill="none" stroke-linecap="round" stroke-linejoin="round"></path></g></g></svg>