<?xml version="1.0" encoding="UTF-8"?><svg version="1.1" width="52px" height="62px" viewBox="0 0 52.0 62.0" xmlns="http://www.w3.org/2000/svg" xmlns:xlink="http://www.w3.org/1999/xlink"><defs><clipPath id="i0"><path d="M1.5,0 C2.32842712,0 3,0.671572875 3,1.5 C3,2.32842712 2.32842712,3 1.5,3 C0.671572875,3 0,2.32842712 0,1.5 C0,0.671572875 0.671572875,0 1.5,0 Z"></path></clipPath><clipPath id="i1"><path d="M13.1887107,0.32018287 C13.4762063,-0.0440092821 14.0051182,-0.106073423 14.3698184,0.178102209 C14.7360927,0.463902071 14.8002032,0.989794423 14.5127076,1.35234804 L5.60764095,12.6390921 C5.4515862,12.8382926 5.21503553,12.9673723 4.96209947,12.9951345 C4.92918558,12.9983543 4.89634325,13 4.86350091,13 C4.64340719,13 4.4265333,12.9215791 4.25573885,12.7811942 L0.303496616,9.50669183 C-0.0546207784,9.21111082 -0.102274362,8.68355846 0.195023894,8.32916177 C0.492393702,7.97311938 1.02295124,7.92582356 1.37942294,8.22140457 L4.75216612,11.0140763 Z"></path></clipPath></defs><g transform="translate(0.9999999999997158 1.0)"><g transform="translate(49.000000000000014 6.039613253960852e-14) rotate(90.00000000000001)"><path d="M10,0 L12,0 L16,0 L42,0 C45.8659932,-7.10171439e-16 49,3.13400675 49,7 L49,42 C49,45.8659932 45.8659932,49 42,49 L10,49 L10,49 L7,49 C3.13400675,49 4.73447626e-16,45.8659932 0,42 L0,23 L0,23 L0,11 L0,9" stroke="#000000" stroke-width="1.5" fill="none" stroke-miterlimit="10"></path></g><g transform="translate(5.000000000000284 11.0)"><g clip-path="url(#i0)"><polygon points="0,0 3,0 3,3 0,3 0,0" stroke="none" fill="#000000"></polygon></g></g><g transform="translate(16.511468869290116 46.46467872876759) rotate(-137.0)"><path d="M21.5143186,0 L21.5143186,14.6971474 C21.5143186,17.4585712 19.2757424,19.6971474 16.5143186,19.6971474 L0,19.6971474 L0,19.6971474" stroke="#000000" stroke-width="1" fill="none" stroke-linecap="round" stroke-miterlimit="10"></path></g><g transform="translate(27.741040790740783 60.7250739536764) rotate(-137.0)"><path d="M18.0291832,0 L17.9562608,3.44386514 L17.9562608,25.2077729 C17.9562608,27.9691966 15.7176846,30.2077729 12.9562608,30.2077729 L0,30.2077729 L0,30.2077729" stroke="#000000" stroke-width="1" fill="none" stroke-miterlimit="10"></path></g><g transform="translate(36.000000000000284 0.0)"><g clip-path="url(#i1)"><polygon points="1.38777878e-16,6.38378239e-16 14.6925469,6.38378239e-16 14.6925469,13 1.38777878e-16,13 1.38777878e-16,6.38378239e-16" stroke="none" fill="#000000"></polygon></g></g></g></svg>